<?xml version="1.0" encoding="utf-8" standalone="no"?>
<!DOCTYPE svg PUBLIC "-//W3C//DTD SVG 1.1//EN"
  "http://www.w3.org/Graphics/SVG/1.1/DTD/svg11.dtd">
<svg height="624.873437pt" version="1.1" viewBox="0 0 393.872656 624.873437" width="393.872656pt" xmlns="http://www.w3.org/2000/svg" xmlns:xlink="http://www.w3.org/1999/xlink">
 <metadata>
  <rdf:RDF xmlns:cc="http://creativecommons.org/ns#" xmlns:dc="http://purl.org/dc/elements/1.1/" xmlns:rdf="http://www.w3.org/1999/02/22-rdf-syntax-ns#">
   <cc:Work>
    <dc:type rdf:resource="http://purl.org/dc/dcmitype/StillImage"/>
    <dc:date>2021-09-28T16:24:11.983510</dc:date>
    <dc:format>image/svg+xml</dc:format>
    <dc:creator>
     <cc:Agent>
      <dc:title>Matplotlib v3.4.3, https://matplotlib.org/</dc:title>
     </cc:Agent>
    </dc:creator>
   </cc:Work>
  </rdf:RDF>
 </metadata>
 <defs>
  <style type="text/css">*{stroke-linecap:butt;stroke-linejoin:round;}</style>
 </defs>
 <g id="figure_1">
  <g id="patch_1">
   <path d="M 0 624.873437 
L 393.872656 624.873437 
L 393.872656 0 
L 0 0 
z
" style="fill:none;"/>
  </g>
  <g id="axes_1">
   <g id="patch_2">
    <path d="M 163.472656 571.719531 
L 386.672656 571.719531 
L 386.672656 28.119531 
L 163.472656 28.119531 
z
" style="fill:#eaeaf2;"/>
   </g>
   <g id="matplotlib.axis_1">
    <g id="xtick_1">
     <g id="text_1">
      <!-- Negative -->
      <g style="fill:#262626;" transform="translate(173.540039 591.061523)scale(0.1375 -0.1375)">
       <defs>
        <path d="M 488 0 
L 488 4581 
L 1109 4581 
L 3516 984 
L 3516 4581 
L 4097 4581 
L 4097 0 
L 3475 0 
L 1069 3600 
L 1069 0 
L 488 0 
z
" id="ArialMT-4e" transform="scale(0.015625)"/>
        <path d="M 2694 1069 
L 3275 997 
Q 3138 488 2766 206 
Q 2394 -75 1816 -75 
Q 1088 -75 661 373 
Q 234 822 234 1631 
Q 234 2469 665 2931 
Q 1097 3394 1784 3394 
Q 2450 3394 2872 2941 
Q 3294 2488 3294 1666 
Q 3294 1616 3291 1516 
L 816 1516 
Q 847 969 1125 678 
Q 1403 388 1819 388 
Q 2128 388 2347 550 
Q 2566 713 2694 1069 
z
M 847 1978 
L 2700 1978 
Q 2663 2397 2488 2606 
Q 2219 2931 1791 2931 
Q 1403 2931 1139 2672 
Q 875 2413 847 1978 
z
" id="ArialMT-65" transform="scale(0.015625)"/>
        <path d="M 319 -275 
L 866 -356 
Q 900 -609 1056 -725 
Q 1266 -881 1628 -881 
Q 2019 -881 2231 -725 
Q 2444 -569 2519 -288 
Q 2563 -116 2559 434 
Q 2191 0 1641 0 
Q 956 0 581 494 
Q 206 988 206 1678 
Q 206 2153 378 2554 
Q 550 2956 876 3175 
Q 1203 3394 1644 3394 
Q 2231 3394 2613 2919 
L 2613 3319 
L 3131 3319 
L 3131 450 
Q 3131 -325 2973 -648 
Q 2816 -972 2473 -1159 
Q 2131 -1347 1631 -1347 
Q 1038 -1347 672 -1080 
Q 306 -813 319 -275 
z
M 784 1719 
Q 784 1066 1043 766 
Q 1303 466 1694 466 
Q 2081 466 2343 764 
Q 2606 1063 2606 1700 
Q 2606 2309 2336 2618 
Q 2066 2928 1684 2928 
Q 1309 2928 1046 2623 
Q 784 2319 784 1719 
z
" id="ArialMT-67" transform="scale(0.015625)"/>
        <path d="M 2588 409 
Q 2275 144 1986 34 
Q 1697 -75 1366 -75 
Q 819 -75 525 192 
Q 231 459 231 875 
Q 231 1119 342 1320 
Q 453 1522 633 1644 
Q 813 1766 1038 1828 
Q 1203 1872 1538 1913 
Q 2219 1994 2541 2106 
Q 2544 2222 2544 2253 
Q 2544 2597 2384 2738 
Q 2169 2928 1744 2928 
Q 1347 2928 1158 2789 
Q 969 2650 878 2297 
L 328 2372 
Q 403 2725 575 2942 
Q 747 3159 1072 3276 
Q 1397 3394 1825 3394 
Q 2250 3394 2515 3294 
Q 2781 3194 2906 3042 
Q 3031 2891 3081 2659 
Q 3109 2516 3109 2141 
L 3109 1391 
Q 3109 606 3145 398 
Q 3181 191 3288 0 
L 2700 0 
Q 2613 175 2588 409 
z
M 2541 1666 
Q 2234 1541 1622 1453 
Q 1275 1403 1131 1340 
Q 988 1278 909 1158 
Q 831 1038 831 891 
Q 831 666 1001 516 
Q 1172 366 1500 366 
Q 1825 366 2078 508 
Q 2331 650 2450 897 
Q 2541 1088 2541 1459 
L 2541 1666 
z
" id="ArialMT-61" transform="scale(0.015625)"/>
        <path d="M 1650 503 
L 1731 6 
Q 1494 -44 1306 -44 
Q 1000 -44 831 53 
Q 663 150 594 308 
Q 525 466 525 972 
L 525 2881 
L 113 2881 
L 113 3319 
L 525 3319 
L 525 4141 
L 1084 4478 
L 1084 3319 
L 1650 3319 
L 1650 2881 
L 1084 2881 
L 1084 941 
Q 1084 700 1114 631 
Q 1144 563 1211 522 
Q 1278 481 1403 481 
Q 1497 481 1650 503 
z
" id="ArialMT-74" transform="scale(0.015625)"/>
        <path d="M 425 3934 
L 425 4581 
L 988 4581 
L 988 3934 
L 425 3934 
z
M 425 0 
L 425 3319 
L 988 3319 
L 988 0 
L 425 0 
z
" id="ArialMT-69" transform="scale(0.015625)"/>
        <path d="M 1344 0 
L 81 3319 
L 675 3319 
L 1388 1331 
Q 1503 1009 1600 663 
Q 1675 925 1809 1294 
L 2547 3319 
L 3125 3319 
L 1869 0 
L 1344 0 
z
" id="ArialMT-76" transform="scale(0.015625)"/>
       </defs>
       <use xlink:href="#ArialMT-4e"/>
       <use x="72.216797" xlink:href="#ArialMT-65"/>
       <use x="127.832031" xlink:href="#ArialMT-67"/>
       <use x="183.447266" xlink:href="#ArialMT-61"/>
       <use x="239.0625" xlink:href="#ArialMT-74"/>
       <use x="266.845703" xlink:href="#ArialMT-69"/>
       <use x="289.0625" xlink:href="#ArialMT-76"/>
       <use x="339.0625" xlink:href="#ArialMT-65"/>
      </g>
     </g>
    </g>
    <g id="xtick_2">
     <g id="text_2">
      <!-- Neutral -->
      <g style="fill:#262626;" transform="translate(252.911523 591.061523)scale(0.1375 -0.1375)">
       <defs>
        <path d="M 2597 0 
L 2597 488 
Q 2209 -75 1544 -75 
Q 1250 -75 995 37 
Q 741 150 617 320 
Q 494 491 444 738 
Q 409 903 409 1263 
L 409 3319 
L 972 3319 
L 972 1478 
Q 972 1038 1006 884 
Q 1059 663 1231 536 
Q 1403 409 1656 409 
Q 1909 409 2131 539 
Q 2353 669 2445 892 
Q 2538 1116 2538 1541 
L 2538 3319 
L 3100 3319 
L 3100 0 
L 2597 0 
z
" id="ArialMT-75" transform="scale(0.015625)"/>
        <path d="M 416 0 
L 416 3319 
L 922 3319 
L 922 2816 
Q 1116 3169 1280 3281 
Q 1444 3394 1641 3394 
Q 1925 3394 2219 3213 
L 2025 2691 
Q 1819 2813 1613 2813 
Q 1428 2813 1281 2702 
Q 1134 2591 1072 2394 
Q 978 2094 978 1738 
L 978 0 
L 416 0 
z
" id="ArialMT-72" transform="scale(0.015625)"/>
        <path d="M 409 0 
L 409 4581 
L 972 4581 
L 972 0 
L 409 0 
z
" id="ArialMT-6c" transform="scale(0.015625)"/>
       </defs>
       <use xlink:href="#ArialMT-4e"/>
       <use x="72.216797" xlink:href="#ArialMT-65"/>
       <use x="127.832031" xlink:href="#ArialMT-75"/>
       <use x="183.447266" xlink:href="#ArialMT-74"/>
       <use x="211.230469" xlink:href="#ArialMT-72"/>
       <use x="244.53125" xlink:href="#ArialMT-61"/>
       <use x="300.146484" xlink:href="#ArialMT-6c"/>
      </g>
     </g>
    </g>
    <g id="xtick_3">
     <g id="text_3">
      <!-- Positive -->
      <g style="fill:#262626;" transform="translate(325.400488 591.061523)scale(0.1375 -0.1375)">
       <defs>
        <path d="M 494 0 
L 494 4581 
L 2222 4581 
Q 2678 4581 2919 4538 
Q 3256 4481 3484 4323 
Q 3713 4166 3852 3881 
Q 3991 3597 3991 3256 
Q 3991 2672 3619 2267 
Q 3247 1863 2275 1863 
L 1100 1863 
L 1100 0 
L 494 0 
z
M 1100 2403 
L 2284 2403 
Q 2872 2403 3119 2622 
Q 3366 2841 3366 3238 
Q 3366 3525 3220 3729 
Q 3075 3934 2838 4000 
Q 2684 4041 2272 4041 
L 1100 4041 
L 1100 2403 
z
" id="ArialMT-50" transform="scale(0.015625)"/>
        <path d="M 213 1659 
Q 213 2581 725 3025 
Q 1153 3394 1769 3394 
Q 2453 3394 2887 2945 
Q 3322 2497 3322 1706 
Q 3322 1066 3130 698 
Q 2938 331 2570 128 
Q 2203 -75 1769 -75 
Q 1072 -75 642 372 
Q 213 819 213 1659 
z
M 791 1659 
Q 791 1022 1069 705 
Q 1347 388 1769 388 
Q 2188 388 2466 706 
Q 2744 1025 2744 1678 
Q 2744 2294 2464 2611 
Q 2184 2928 1769 2928 
Q 1347 2928 1069 2612 
Q 791 2297 791 1659 
z
" id="ArialMT-6f" transform="scale(0.015625)"/>
        <path d="M 197 991 
L 753 1078 
Q 800 744 1014 566 
Q 1228 388 1613 388 
Q 2000 388 2187 545 
Q 2375 703 2375 916 
Q 2375 1106 2209 1216 
Q 2094 1291 1634 1406 
Q 1016 1563 777 1677 
Q 538 1791 414 1992 
Q 291 2194 291 2438 
Q 291 2659 392 2848 
Q 494 3038 669 3163 
Q 800 3259 1026 3326 
Q 1253 3394 1513 3394 
Q 1903 3394 2198 3281 
Q 2494 3169 2634 2976 
Q 2775 2784 2828 2463 
L 2278 2388 
Q 2241 2644 2061 2787 
Q 1881 2931 1553 2931 
Q 1166 2931 1000 2803 
Q 834 2675 834 2503 
Q 834 2394 903 2306 
Q 972 2216 1119 2156 
Q 1203 2125 1616 2013 
Q 2213 1853 2448 1751 
Q 2684 1650 2818 1456 
Q 2953 1263 2953 975 
Q 2953 694 2789 445 
Q 2625 197 2315 61 
Q 2006 -75 1616 -75 
Q 969 -75 630 194 
Q 291 463 197 991 
z
" id="ArialMT-73" transform="scale(0.015625)"/>
       </defs>
       <use xlink:href="#ArialMT-50"/>
       <use x="66.699219" xlink:href="#ArialMT-6f"/>
       <use x="122.314453" xlink:href="#ArialMT-73"/>
       <use x="172.314453" xlink:href="#ArialMT-69"/>
       <use x="194.53125" xlink:href="#ArialMT-74"/>
       <use x="222.314453" xlink:href="#ArialMT-69"/>
       <use x="244.53125" xlink:href="#ArialMT-76"/>
       <use x="294.53125" xlink:href="#ArialMT-65"/>
      </g>
     </g>
    </g>
    <g id="text_4">
     <!-- Sentiment -->
     <g style="fill:#262626;" transform="translate(241.30625 614.692187)scale(0.15 -0.15)">
      <defs>
       <path d="M 288 1472 
L 859 1522 
Q 900 1178 1048 958 
Q 1197 738 1509 602 
Q 1822 466 2213 466 
Q 2559 466 2825 569 
Q 3091 672 3220 851 
Q 3350 1031 3350 1244 
Q 3350 1459 3225 1620 
Q 3100 1781 2813 1891 
Q 2628 1963 1997 2114 
Q 1366 2266 1113 2400 
Q 784 2572 623 2826 
Q 463 3081 463 3397 
Q 463 3744 659 4045 
Q 856 4347 1234 4503 
Q 1613 4659 2075 4659 
Q 2584 4659 2973 4495 
Q 3363 4331 3572 4012 
Q 3781 3694 3797 3291 
L 3216 3247 
Q 3169 3681 2898 3903 
Q 2628 4125 2100 4125 
Q 1550 4125 1298 3923 
Q 1047 3722 1047 3438 
Q 1047 3191 1225 3031 
Q 1400 2872 2139 2705 
Q 2878 2538 3153 2413 
Q 3553 2228 3743 1945 
Q 3934 1663 3934 1294 
Q 3934 928 3725 604 
Q 3516 281 3123 101 
Q 2731 -78 2241 -78 
Q 1619 -78 1198 103 
Q 778 284 539 648 
Q 300 1013 288 1472 
z
" id="ArialMT-53" transform="scale(0.015625)"/>
       <path d="M 422 0 
L 422 3319 
L 928 3319 
L 928 2847 
Q 1294 3394 1984 3394 
Q 2284 3394 2536 3286 
Q 2788 3178 2913 3003 
Q 3038 2828 3088 2588 
Q 3119 2431 3119 2041 
L 3119 0 
L 2556 0 
L 2556 2019 
Q 2556 2363 2490 2533 
Q 2425 2703 2258 2804 
Q 2091 2906 1866 2906 
Q 1506 2906 1245 2678 
Q 984 2450 984 1813 
L 984 0 
L 422 0 
z
" id="ArialMT-6e" transform="scale(0.015625)"/>
       <path d="M 422 0 
L 422 3319 
L 925 3319 
L 925 2853 
Q 1081 3097 1340 3245 
Q 1600 3394 1931 3394 
Q 2300 3394 2536 3241 
Q 2772 3088 2869 2813 
Q 3263 3394 3894 3394 
Q 4388 3394 4653 3120 
Q 4919 2847 4919 2278 
L 4919 0 
L 4359 0 
L 4359 2091 
Q 4359 2428 4304 2576 
Q 4250 2725 4106 2815 
Q 3963 2906 3769 2906 
Q 3419 2906 3187 2673 
Q 2956 2441 2956 1928 
L 2956 0 
L 2394 0 
L 2394 2156 
Q 2394 2531 2256 2718 
Q 2119 2906 1806 2906 
Q 1569 2906 1367 2781 
Q 1166 2656 1075 2415 
Q 984 2175 984 1722 
L 984 0 
L 422 0 
z
" id="ArialMT-6d" transform="scale(0.015625)"/>
      </defs>
      <use xlink:href="#ArialMT-53"/>
      <use x="66.699219" xlink:href="#ArialMT-65"/>
      <use x="122.314453" xlink:href="#ArialMT-6e"/>
      <use x="177.929688" xlink:href="#ArialMT-74"/>
      <use x="205.712891" xlink:href="#ArialMT-69"/>
      <use x="227.929688" xlink:href="#ArialMT-6d"/>
      <use x="311.230469" xlink:href="#ArialMT-65"/>
      <use x="366.845703" xlink:href="#ArialMT-6e"/>
      <use x="422.460938" xlink:href="#ArialMT-74"/>
     </g>
    </g>
   </g>
   <g id="matplotlib.axis_2">
    <g id="ytick_1">
     <g id="text_5">
      <!-- frq__not -->
      <g style="fill:#262626;" transform="translate(103.523047 42.62991)scale(0.1375 -0.1375)">
       <defs>
        <path d="M 556 0 
L 556 2881 
L 59 2881 
L 59 3319 
L 556 3319 
L 556 3672 
Q 556 4006 616 4169 
Q 697 4388 901 4523 
Q 1106 4659 1475 4659 
Q 1713 4659 2000 4603 
L 1916 4113 
Q 1741 4144 1584 4144 
Q 1328 4144 1222 4034 
Q 1116 3925 1116 3625 
L 1116 3319 
L 1763 3319 
L 1763 2881 
L 1116 2881 
L 1116 0 
L 556 0 
z
" id="ArialMT-66" transform="scale(0.015625)"/>
        <path d="M 2538 -1272 
L 2538 353 
Q 2406 169 2170 47 
Q 1934 -75 1669 -75 
Q 1078 -75 651 397 
Q 225 869 225 1691 
Q 225 2191 398 2587 
Q 572 2984 901 3189 
Q 1231 3394 1625 3394 
Q 2241 3394 2594 2875 
L 2594 3319 
L 3100 3319 
L 3100 -1272 
L 2538 -1272 
z
M 803 1669 
Q 803 1028 1072 708 
Q 1341 388 1716 388 
Q 2075 388 2334 692 
Q 2594 997 2594 1619 
Q 2594 2281 2320 2615 
Q 2047 2950 1678 2950 
Q 1313 2950 1058 2639 
Q 803 2328 803 1669 
z
" id="ArialMT-71" transform="scale(0.015625)"/>
        <path d="M -97 -1272 
L -97 -866 
L 3631 -866 
L 3631 -1272 
L -97 -1272 
z
" id="ArialMT-5f" transform="scale(0.015625)"/>
       </defs>
       <use xlink:href="#ArialMT-66"/>
       <use x="27.783203" xlink:href="#ArialMT-72"/>
       <use x="61.083984" xlink:href="#ArialMT-71"/>
       <use x="116.699219" xlink:href="#ArialMT-5f"/>
       <use x="172.314453" xlink:href="#ArialMT-5f"/>
       <use x="227.929688" xlink:href="#ArialMT-6e"/>
       <use x="283.544922" xlink:href="#ArialMT-6f"/>
       <use x="339.160156" xlink:href="#ArialMT-74"/>
      </g>
     </g>
    </g>
    <g id="ytick_2">
     <g id="text_6">
      <!-- frq__n't -->
      <g style="fill:#262626;" transform="translate(108.543945 64.37391)scale(0.1375 -0.1375)">
       <defs>
        <path d="M 425 2959 
L 281 3816 
L 281 4581 
L 922 4581 
L 922 3816 
L 772 2959 
L 425 2959 
z
" id="ArialMT-27" transform="scale(0.015625)"/>
       </defs>
       <use xlink:href="#ArialMT-66"/>
       <use x="27.783203" xlink:href="#ArialMT-72"/>
       <use x="61.083984" xlink:href="#ArialMT-71"/>
       <use x="116.699219" xlink:href="#ArialMT-5f"/>
       <use x="172.314453" xlink:href="#ArialMT-5f"/>
       <use x="227.929688" xlink:href="#ArialMT-6e"/>
       <use x="283.544922" xlink:href="#ArialMT-27"/>
       <use x="302.636719" xlink:href="#ArialMT-74"/>
      </g>
     </g>
    </g>
    <g id="ytick_3">
     <g id="text_7">
      <!-- frq__design_headaches -->
      <g style="fill:#262626;" transform="translate(7.2 86.037344)scale(0.1375 -0.1375)">
       <defs>
        <path d="M 2575 0 
L 2575 419 
Q 2259 -75 1647 -75 
Q 1250 -75 917 144 
Q 584 363 401 755 
Q 219 1147 219 1656 
Q 219 2153 384 2558 
Q 550 2963 881 3178 
Q 1213 3394 1622 3394 
Q 1922 3394 2156 3267 
Q 2391 3141 2538 2938 
L 2538 4581 
L 3097 4581 
L 3097 0 
L 2575 0 
z
M 797 1656 
Q 797 1019 1065 703 
Q 1334 388 1700 388 
Q 2069 388 2326 689 
Q 2584 991 2584 1609 
Q 2584 2291 2321 2609 
Q 2059 2928 1675 2928 
Q 1300 2928 1048 2622 
Q 797 2316 797 1656 
z
" id="ArialMT-64" transform="scale(0.015625)"/>
        <path d="M 422 0 
L 422 4581 
L 984 4581 
L 984 2938 
Q 1378 3394 1978 3394 
Q 2347 3394 2619 3248 
Q 2891 3103 3008 2847 
Q 3125 2591 3125 2103 
L 3125 0 
L 2563 0 
L 2563 2103 
Q 2563 2525 2380 2717 
Q 2197 2909 1863 2909 
Q 1613 2909 1392 2779 
Q 1172 2650 1078 2428 
Q 984 2206 984 1816 
L 984 0 
L 422 0 
z
" id="ArialMT-68" transform="scale(0.015625)"/>
        <path d="M 2588 1216 
L 3141 1144 
Q 3050 572 2676 248 
Q 2303 -75 1759 -75 
Q 1078 -75 664 370 
Q 250 816 250 1647 
Q 250 2184 428 2587 
Q 606 2991 970 3192 
Q 1334 3394 1763 3394 
Q 2303 3394 2647 3120 
Q 2991 2847 3088 2344 
L 2541 2259 
Q 2463 2594 2264 2762 
Q 2066 2931 1784 2931 
Q 1359 2931 1093 2626 
Q 828 2322 828 1663 
Q 828 994 1084 691 
Q 1341 388 1753 388 
Q 2084 388 2306 591 
Q 2528 794 2588 1216 
z
" id="ArialMT-63" transform="scale(0.015625)"/>
       </defs>
       <use xlink:href="#ArialMT-66"/>
       <use x="27.783203" xlink:href="#ArialMT-72"/>
       <use x="61.083984" xlink:href="#ArialMT-71"/>
       <use x="116.699219" xlink:href="#ArialMT-5f"/>
       <use x="172.314453" xlink:href="#ArialMT-5f"/>
       <use x="227.929688" xlink:href="#ArialMT-64"/>
       <use x="283.544922" xlink:href="#ArialMT-65"/>
       <use x="339.160156" xlink:href="#ArialMT-73"/>
       <use x="389.160156" xlink:href="#ArialMT-69"/>
       <use x="411.376953" xlink:href="#ArialMT-67"/>
       <use x="466.992188" xlink:href="#ArialMT-6e"/>
       <use x="522.607422" xlink:href="#ArialMT-5f"/>
       <use x="578.222656" xlink:href="#ArialMT-68"/>
       <use x="633.837891" xlink:href="#ArialMT-65"/>
       <use x="689.453125" xlink:href="#ArialMT-61"/>
       <use x="745.068359" xlink:href="#ArialMT-64"/>
       <use x="800.683594" xlink:href="#ArialMT-61"/>
       <use x="856.298828" xlink:href="#ArialMT-63"/>
       <use x="906.298828" xlink:href="#ArialMT-68"/>
       <use x="961.914062" xlink:href="#ArialMT-65"/>
       <use x="1017.529297" xlink:href="#ArialMT-73"/>
      </g>
     </g>
    </g>
    <g id="ytick_4">
     <g id="text_8">
      <!-- frq__headaches -->
      <g style="fill:#262626;" transform="translate(55.361523 107.86191)scale(0.1375 -0.1375)">
       <use xlink:href="#ArialMT-66"/>
       <use x="27.783203" xlink:href="#ArialMT-72"/>
       <use x="61.083984" xlink:href="#ArialMT-71"/>
       <use x="116.699219" xlink:href="#ArialMT-5f"/>
       <use x="172.314453" xlink:href="#ArialMT-5f"/>
       <use x="227.929688" xlink:href="#ArialMT-68"/>
       <use x="283.544922" xlink:href="#ArialMT-65"/>
       <use x="339.160156" xlink:href="#ArialMT-61"/>
       <use x="394.775391" xlink:href="#ArialMT-64"/>
       <use x="450.390625" xlink:href="#ArialMT-61"/>
       <use x="506.005859" xlink:href="#ArialMT-63"/>
       <use x="556.005859" xlink:href="#ArialMT-68"/>
       <use x="611.621094" xlink:href="#ArialMT-65"/>
       <use x="667.236328" xlink:href="#ArialMT-73"/>
      </g>
     </g>
    </g>
    <g id="ytick_5">
     <g id="text_9">
      <!-- frq__long -->
      <g style="fill:#262626;" transform="translate(96.641602 129.525344)scale(0.1375 -0.1375)">
       <use xlink:href="#ArialMT-66"/>
       <use x="27.783203" xlink:href="#ArialMT-72"/>
       <use x="61.083984" xlink:href="#ArialMT-71"/>
       <use x="116.699219" xlink:href="#ArialMT-5f"/>
       <use x="172.314453" xlink:href="#ArialMT-5f"/>
       <use x="227.929688" xlink:href="#ArialMT-6c"/>
       <use x="250.146484" xlink:href="#ArialMT-6f"/>
       <use x="305.761719" xlink:href="#ArialMT-6e"/>
       <use x="361.376953" xlink:href="#ArialMT-67"/>
      </g>
     </g>
    </g>
    <g id="ytick_6">
     <g id="text_10">
      <!-- frq__fail -->
      <g style="fill:#262626;" transform="translate(105.05918 151.34991)scale(0.1375 -0.1375)">
       <use xlink:href="#ArialMT-66"/>
       <use x="27.783203" xlink:href="#ArialMT-72"/>
       <use x="61.083984" xlink:href="#ArialMT-71"/>
       <use x="116.699219" xlink:href="#ArialMT-5f"/>
       <use x="172.314453" xlink:href="#ArialMT-5f"/>
       <use x="227.929688" xlink:href="#ArialMT-66"/>
       <use x="255.712891" xlink:href="#ArialMT-61"/>
       <use x="311.328125" xlink:href="#ArialMT-69"/>
       <use x="333.544922" xlink:href="#ArialMT-6c"/>
      </g>
     </g>
    </g>
    <g id="ytick_7">
     <g id="text_11">
      <!-- frq__iphone -->
      <g style="fill:#262626;" transform="translate(81.349023 173.09391)scale(0.1375 -0.1375)">
       <defs>
        <path d="M 422 -1272 
L 422 3319 
L 934 3319 
L 934 2888 
Q 1116 3141 1344 3267 
Q 1572 3394 1897 3394 
Q 2322 3394 2647 3175 
Q 2972 2956 3137 2557 
Q 3303 2159 3303 1684 
Q 3303 1175 3120 767 
Q 2938 359 2589 142 
Q 2241 -75 1856 -75 
Q 1575 -75 1351 44 
Q 1128 163 984 344 
L 984 -1272 
L 422 -1272 
z
M 931 1641 
Q 931 1000 1190 694 
Q 1450 388 1819 388 
Q 2194 388 2461 705 
Q 2728 1022 2728 1688 
Q 2728 2322 2467 2637 
Q 2206 2953 1844 2953 
Q 1484 2953 1207 2617 
Q 931 2281 931 1641 
z
" id="ArialMT-70" transform="scale(0.015625)"/>
       </defs>
       <use xlink:href="#ArialMT-66"/>
       <use x="27.783203" xlink:href="#ArialMT-72"/>
       <use x="61.083984" xlink:href="#ArialMT-71"/>
       <use x="116.699219" xlink:href="#ArialMT-5f"/>
       <use x="172.314453" xlink:href="#ArialMT-5f"/>
       <use x="227.929688" xlink:href="#ArialMT-69"/>
       <use x="250.146484" xlink:href="#ArialMT-70"/>
       <use x="305.761719" xlink:href="#ArialMT-68"/>
       <use x="361.376953" xlink:href="#ArialMT-6f"/>
       <use x="416.992188" xlink:href="#ArialMT-6e"/>
       <use x="472.607422" xlink:href="#ArialMT-65"/>
      </g>
     </g>
    </g>
    <g id="ytick_8">
     <g id="text_12">
      <!-- frq__enough -->
      <g style="fill:#262626;" transform="translate(76.757812 194.757344)scale(0.1375 -0.1375)">
       <use xlink:href="#ArialMT-66"/>
       <use x="27.783203" xlink:href="#ArialMT-72"/>
       <use x="61.083984" xlink:href="#ArialMT-71"/>
       <use x="116.699219" xlink:href="#ArialMT-5f"/>
       <use x="172.314453" xlink:href="#ArialMT-5f"/>
       <use x="227.929688" xlink:href="#ArialMT-65"/>
       <use x="283.544922" xlink:href="#ArialMT-6e"/>
       <use x="339.160156" xlink:href="#ArialMT-6f"/>
       <use x="394.775391" xlink:href="#ArialMT-75"/>
       <use x="450.390625" xlink:href="#ArialMT-67"/>
       <use x="506.005859" xlink:href="#ArialMT-68"/>
      </g>
     </g>
    </g>
    <g id="ytick_9">
     <g id="text_13">
      <!-- frq__because -->
      <g style="fill:#262626;" transform="translate(70.654102 216.58191)scale(0.1375 -0.1375)">
       <defs>
        <path d="M 941 0 
L 419 0 
L 419 4581 
L 981 4581 
L 981 2947 
Q 1338 3394 1891 3394 
Q 2197 3394 2470 3270 
Q 2744 3147 2920 2923 
Q 3097 2700 3197 2384 
Q 3297 2069 3297 1709 
Q 3297 856 2875 390 
Q 2453 -75 1863 -75 
Q 1275 -75 941 416 
L 941 0 
z
M 934 1684 
Q 934 1088 1097 822 
Q 1363 388 1816 388 
Q 2184 388 2453 708 
Q 2722 1028 2722 1663 
Q 2722 2313 2464 2622 
Q 2206 2931 1841 2931 
Q 1472 2931 1203 2611 
Q 934 2291 934 1684 
z
" id="ArialMT-62" transform="scale(0.015625)"/>
       </defs>
       <use xlink:href="#ArialMT-66"/>
       <use x="27.783203" xlink:href="#ArialMT-72"/>
       <use x="61.083984" xlink:href="#ArialMT-71"/>
       <use x="116.699219" xlink:href="#ArialMT-5f"/>
       <use x="172.314453" xlink:href="#ArialMT-5f"/>
       <use x="227.929688" xlink:href="#ArialMT-62"/>
       <use x="283.544922" xlink:href="#ArialMT-65"/>
       <use x="339.160156" xlink:href="#ArialMT-63"/>
       <use x="389.160156" xlink:href="#ArialMT-61"/>
       <use x="444.775391" xlink:href="#ArialMT-75"/>
       <use x="500.390625" xlink:href="#ArialMT-73"/>
       <use x="550.390625" xlink:href="#ArialMT-65"/>
      </g>
     </g>
    </g>
    <g id="ytick_10">
     <g id="text_14">
      <!-- frq__#_fail -->
      <g style="fill:#262626;" transform="translate(89.766602 238.32591)scale(0.1375 -0.1375)">
       <defs>
        <path d="M 322 -78 
L 594 1253 
L 66 1253 
L 66 1719 
L 688 1719 
L 919 2853 
L 66 2853 
L 66 3319 
L 1013 3319 
L 1284 4659 
L 1753 4659 
L 1481 3319 
L 2466 3319 
L 2738 4659 
L 3209 4659 
L 2938 3319 
L 3478 3319 
L 3478 2853 
L 2844 2853 
L 2609 1719 
L 3478 1719 
L 3478 1253 
L 2516 1253 
L 2244 -78 
L 1775 -78 
L 2044 1253 
L 1063 1253 
L 791 -78 
L 322 -78 
z
M 1156 1719 
L 2138 1719 
L 2372 2853 
L 1388 2853 
L 1156 1719 
z
" id="ArialMT-23" transform="scale(0.015625)"/>
       </defs>
       <use xlink:href="#ArialMT-66"/>
       <use x="27.783203" xlink:href="#ArialMT-72"/>
       <use x="61.083984" xlink:href="#ArialMT-71"/>
       <use x="116.699219" xlink:href="#ArialMT-5f"/>
       <use x="172.314453" xlink:href="#ArialMT-5f"/>
       <use x="227.929688" xlink:href="#ArialMT-23"/>
       <use x="283.544922" xlink:href="#ArialMT-5f"/>
       <use x="339.160156" xlink:href="#ArialMT-66"/>
       <use x="366.943359" xlink:href="#ArialMT-61"/>
       <use x="422.558594" xlink:href="#ArialMT-69"/>
       <use x="444.775391" xlink:href="#ArialMT-6c"/>
      </g>
     </g>
    </g>
    <g id="ytick_11">
     <g id="text_15">
      <!-- frq__hate -->
      <g style="fill:#262626;" transform="translate(95.876758 260.06991)scale(0.1375 -0.1375)">
       <use xlink:href="#ArialMT-66"/>
       <use x="27.783203" xlink:href="#ArialMT-72"/>
       <use x="61.083984" xlink:href="#ArialMT-71"/>
       <use x="116.699219" xlink:href="#ArialMT-5f"/>
       <use x="172.314453" xlink:href="#ArialMT-5f"/>
       <use x="227.929688" xlink:href="#ArialMT-68"/>
       <use x="283.544922" xlink:href="#ArialMT-61"/>
       <use x="339.160156" xlink:href="#ArialMT-74"/>
       <use x="366.943359" xlink:href="#ArialMT-65"/>
      </g>
     </g>
    </g>
    <g id="ytick_12">
     <g id="text_16">
      <!-- frq__ipad_news -->
      <g style="fill:#262626;" transform="translate(56.897656 281.81391)scale(0.1375 -0.1375)">
       <defs>
        <path d="M 1034 0 
L 19 3319 
L 600 3319 
L 1128 1403 
L 1325 691 
Q 1338 744 1497 1375 
L 2025 3319 
L 2603 3319 
L 3100 1394 
L 3266 759 
L 3456 1400 
L 4025 3319 
L 4572 3319 
L 3534 0 
L 2950 0 
L 2422 1988 
L 2294 2553 
L 1622 0 
L 1034 0 
z
" id="ArialMT-77" transform="scale(0.015625)"/>
       </defs>
       <use xlink:href="#ArialMT-66"/>
       <use x="27.783203" xlink:href="#ArialMT-72"/>
       <use x="61.083984" xlink:href="#ArialMT-71"/>
       <use x="116.699219" xlink:href="#ArialMT-5f"/>
       <use x="172.314453" xlink:href="#ArialMT-5f"/>
       <use x="227.929688" xlink:href="#ArialMT-69"/>
       <use x="250.146484" xlink:href="#ArialMT-70"/>
       <use x="305.761719" xlink:href="#ArialMT-61"/>
       <use x="361.376953" xlink:href="#ArialMT-64"/>
       <use x="416.992188" xlink:href="#ArialMT-5f"/>
       <use x="472.607422" xlink:href="#ArialMT-6e"/>
       <use x="528.222656" xlink:href="#ArialMT-65"/>
       <use x="583.837891" xlink:href="#ArialMT-77"/>
       <use x="656.054688" xlink:href="#ArialMT-73"/>
      </g>
     </g>
    </g>
    <g id="ytick_13">
     <g id="text_17">
      <!-- frq__apps -->
      <g style="fill:#262626;" transform="translate(92.82168 303.55791)scale(0.1375 -0.1375)">
       <use xlink:href="#ArialMT-66"/>
       <use x="27.783203" xlink:href="#ArialMT-72"/>
       <use x="61.083984" xlink:href="#ArialMT-71"/>
       <use x="116.699219" xlink:href="#ArialMT-5f"/>
       <use x="172.314453" xlink:href="#ArialMT-5f"/>
       <use x="227.929688" xlink:href="#ArialMT-61"/>
       <use x="283.544922" xlink:href="#ArialMT-70"/>
       <use x="339.160156" xlink:href="#ArialMT-70"/>
       <use x="394.775391" xlink:href="#ArialMT-73"/>
      </g>
     </g>
    </g>
    <g id="ytick_14">
     <g id="text_18">
      <!-- frq__already -->
      <g style="fill:#262626;" transform="translate(77.541992 325.221344)scale(0.1375 -0.1375)">
       <defs>
        <path d="M 397 -1278 
L 334 -750 
Q 519 -800 656 -800 
Q 844 -800 956 -737 
Q 1069 -675 1141 -563 
Q 1194 -478 1313 -144 
Q 1328 -97 1363 -6 
L 103 3319 
L 709 3319 
L 1400 1397 
Q 1534 1031 1641 628 
Q 1738 1016 1872 1384 
L 2581 3319 
L 3144 3319 
L 1881 -56 
Q 1678 -603 1566 -809 
Q 1416 -1088 1222 -1217 
Q 1028 -1347 759 -1347 
Q 597 -1347 397 -1278 
z
" id="ArialMT-79" transform="scale(0.015625)"/>
       </defs>
       <use xlink:href="#ArialMT-66"/>
       <use x="27.783203" xlink:href="#ArialMT-72"/>
       <use x="61.083984" xlink:href="#ArialMT-71"/>
       <use x="116.699219" xlink:href="#ArialMT-5f"/>
       <use x="172.314453" xlink:href="#ArialMT-5f"/>
       <use x="227.929688" xlink:href="#ArialMT-61"/>
       <use x="283.544922" xlink:href="#ArialMT-6c"/>
       <use x="305.761719" xlink:href="#ArialMT-72"/>
       <use x="339.0625" xlink:href="#ArialMT-65"/>
       <use x="394.677734" xlink:href="#ArialMT-61"/>
       <use x="450.292969" xlink:href="#ArialMT-64"/>
       <use x="505.908203" xlink:href="#ArialMT-79"/>
      </g>
     </g>
    </g>
    <g id="ytick_15">
     <g id="text_19">
      <!-- frq__why -->
      <g style="fill:#262626;" transform="translate(98.18418 346.965344)scale(0.1375 -0.1375)">
       <use xlink:href="#ArialMT-66"/>
       <use x="27.783203" xlink:href="#ArialMT-72"/>
       <use x="61.083984" xlink:href="#ArialMT-71"/>
       <use x="116.699219" xlink:href="#ArialMT-5f"/>
       <use x="172.314453" xlink:href="#ArialMT-5f"/>
       <use x="227.929688" xlink:href="#ArialMT-77"/>
       <use x="300.146484" xlink:href="#ArialMT-68"/>
       <use x="355.761719" xlink:href="#ArialMT-79"/>
      </g>
     </g>
    </g>
    <g id="ytick_16">
     <g id="text_20">
      <!-- frq__news_apps -->
      <g style="fill:#262626;" transform="translate(53.077734 368.78991)scale(0.1375 -0.1375)">
       <use xlink:href="#ArialMT-66"/>
       <use x="27.783203" xlink:href="#ArialMT-72"/>
       <use x="61.083984" xlink:href="#ArialMT-71"/>
       <use x="116.699219" xlink:href="#ArialMT-5f"/>
       <use x="172.314453" xlink:href="#ArialMT-5f"/>
       <use x="227.929688" xlink:href="#ArialMT-6e"/>
       <use x="283.544922" xlink:href="#ArialMT-65"/>
       <use x="339.160156" xlink:href="#ArialMT-77"/>
       <use x="411.376953" xlink:href="#ArialMT-73"/>
       <use x="461.376953" xlink:href="#ArialMT-5f"/>
       <use x="516.992188" xlink:href="#ArialMT-61"/>
       <use x="572.607422" xlink:href="#ArialMT-70"/>
       <use x="628.222656" xlink:href="#ArialMT-70"/>
       <use x="683.837891" xlink:href="#ArialMT-73"/>
      </g>
     </g>
    </g>
    <g id="ytick_17">
     <g id="text_21">
      <!-- frq__is -->
      <g style="fill:#262626;" transform="translate(112.705469 390.53391)scale(0.1375 -0.1375)">
       <use xlink:href="#ArialMT-66"/>
       <use x="27.783203" xlink:href="#ArialMT-72"/>
       <use x="61.083984" xlink:href="#ArialMT-71"/>
       <use x="116.699219" xlink:href="#ArialMT-5f"/>
       <use x="172.314453" xlink:href="#ArialMT-5f"/>
       <use x="227.929688" xlink:href="#ArialMT-69"/>
       <use x="250.146484" xlink:href="#ArialMT-73"/>
      </g>
     </g>
    </g>
    <g id="ytick_18">
     <g id="text_22">
      <!-- frq__. -->
      <g style="fill:#262626;" transform="translate(118.815625 412.27791)scale(0.1375 -0.1375)">
       <defs>
        <path d="M 581 0 
L 581 641 
L 1222 641 
L 1222 0 
L 581 0 
z
" id="ArialMT-2e" transform="scale(0.015625)"/>
       </defs>
       <use xlink:href="#ArialMT-66"/>
       <use x="27.783203" xlink:href="#ArialMT-72"/>
       <use x="61.083984" xlink:href="#ArialMT-71"/>
       <use x="116.699219" xlink:href="#ArialMT-5f"/>
       <use x="172.314453" xlink:href="#ArialMT-5f"/>
       <use x="227.929688" xlink:href="#ArialMT-2e"/>
      </g>
     </g>
    </g>
    <g id="ytick_19">
     <g id="text_23">
      <!-- frq__app -->
      <g style="fill:#262626;" transform="translate(99.69668 434.02191)scale(0.1375 -0.1375)">
       <use xlink:href="#ArialMT-66"/>
       <use x="27.783203" xlink:href="#ArialMT-72"/>
       <use x="61.083984" xlink:href="#ArialMT-71"/>
       <use x="116.699219" xlink:href="#ArialMT-5f"/>
       <use x="172.314453" xlink:href="#ArialMT-5f"/>
       <use x="227.929688" xlink:href="#ArialMT-61"/>
       <use x="283.544922" xlink:href="#ArialMT-70"/>
       <use x="339.160156" xlink:href="#ArialMT-70"/>
      </g>
     </g>
    </g>
    <g id="ytick_20">
     <g id="text_24">
      <!-- frq__? -->
      <g style="fill:#262626;" transform="translate(114.989258 455.76591)scale(0.1375 -0.1375)">
       <defs>
        <path d="M 1475 1128 
Q 1472 1241 1472 1297 
Q 1472 1628 1566 1869 
Q 1634 2050 1788 2234 
Q 1900 2369 2192 2626 
Q 2484 2884 2571 3037 
Q 2659 3191 2659 3372 
Q 2659 3700 2403 3948 
Q 2147 4197 1775 4197 
Q 1416 4197 1175 3972 
Q 934 3747 859 3269 
L 281 3338 
Q 359 3978 745 4318 
Q 1131 4659 1766 4659 
Q 2438 4659 2838 4293 
Q 3238 3928 3238 3409 
Q 3238 3109 3097 2856 
Q 2956 2603 2547 2241 
Q 2272 1997 2187 1881 
Q 2103 1766 2062 1616 
Q 2022 1466 2016 1128 
L 1475 1128 
z
M 1441 0 
L 1441 641 
L 2081 641 
L 2081 0 
L 1441 0 
z
" id="ArialMT-3f" transform="scale(0.015625)"/>
       </defs>
       <use xlink:href="#ArialMT-66"/>
       <use x="27.783203" xlink:href="#ArialMT-72"/>
       <use x="61.083984" xlink:href="#ArialMT-71"/>
       <use x="116.699219" xlink:href="#ArialMT-5f"/>
       <use x="172.314453" xlink:href="#ArialMT-5f"/>
       <use x="227.929688" xlink:href="#ArialMT-3f"/>
      </g>
     </g>
    </g>
    <g id="ytick_21">
     <g id="text_25">
      <!-- frq__ipad -->
      <g style="fill:#262626;" transform="translate(96.641602 477.50991)scale(0.1375 -0.1375)">
       <use xlink:href="#ArialMT-66"/>
       <use x="27.783203" xlink:href="#ArialMT-72"/>
       <use x="61.083984" xlink:href="#ArialMT-71"/>
       <use x="116.699219" xlink:href="#ArialMT-5f"/>
       <use x="172.314453" xlink:href="#ArialMT-5f"/>
       <use x="227.929688" xlink:href="#ArialMT-69"/>
       <use x="250.146484" xlink:href="#ArialMT-70"/>
       <use x="305.761719" xlink:href="#ArialMT-61"/>
       <use x="361.376953" xlink:href="#ArialMT-64"/>
      </g>
     </g>
    </g>
    <g id="ytick_22">
     <g id="text_26">
      <!-- frq__cool -->
      <g style="fill:#262626;" transform="translate(97.412891 499.25391)scale(0.1375 -0.1375)">
       <use xlink:href="#ArialMT-66"/>
       <use x="27.783203" xlink:href="#ArialMT-72"/>
       <use x="61.083984" xlink:href="#ArialMT-71"/>
       <use x="116.699219" xlink:href="#ArialMT-5f"/>
       <use x="172.314453" xlink:href="#ArialMT-5f"/>
       <use x="227.929688" xlink:href="#ArialMT-63"/>
       <use x="277.929688" xlink:href="#ArialMT-6f"/>
       <use x="333.544922" xlink:href="#ArialMT-6f"/>
       <use x="389.160156" xlink:href="#ArialMT-6c"/>
      </g>
     </g>
    </g>
    <g id="ytick_23">
     <g id="text_27">
      <!-- frq__! -->
      <g style="fill:#262626;" transform="translate(118.815625 520.99791)scale(0.1375 -0.1375)">
       <defs>
        <path d="M 722 1138 
L 550 3566 
L 550 4581 
L 1247 4581 
L 1247 3566 
L 1084 1138 
L 722 1138 
z
M 575 0 
L 575 641 
L 1222 641 
L 1222 0 
L 575 0 
z
" id="ArialMT-21" transform="scale(0.015625)"/>
       </defs>
       <use xlink:href="#ArialMT-66"/>
       <use x="27.783203" xlink:href="#ArialMT-72"/>
       <use x="61.083984" xlink:href="#ArialMT-71"/>
       <use x="116.699219" xlink:href="#ArialMT-5f"/>
       <use x="172.314453" xlink:href="#ArialMT-5f"/>
       <use x="227.929688" xlink:href="#ArialMT-21"/>
      </g>
     </g>
    </g>
    <g id="ytick_24">
     <g id="text_28">
      <!-- frq__&amp; -->
      <g style="fill:#262626;" transform="translate(113.463867 542.74191)scale(0.1375 -0.1375)">
       <defs>
        <path d="M 3041 541 
Q 2763 231 2434 76 
Q 2106 -78 1725 -78 
Q 1022 -78 609 397 
Q 275 784 275 1263 
Q 275 1688 548 2030 
Q 822 2372 1366 2631 
Q 1056 2988 953 3209 
Q 850 3431 850 3638 
Q 850 4050 1173 4354 
Q 1497 4659 1988 4659 
Q 2456 4659 2754 4371 
Q 3053 4084 3053 3681 
Q 3053 3028 2188 2566 
L 3009 1519 
Q 3150 1794 3228 2156 
L 3813 2031 
Q 3663 1431 3406 1044 
Q 3722 625 4122 341 
L 3744 -106 
Q 3403 113 3041 541 
z
M 1897 2928 
Q 2263 3144 2370 3306 
Q 2478 3469 2478 3666 
Q 2478 3900 2329 4048 
Q 2181 4197 1959 4197 
Q 1731 4197 1579 4050 
Q 1428 3903 1428 3691 
Q 1428 3584 1483 3467 
Q 1538 3350 1647 3219 
L 1897 2928 
z
M 2688 984 
L 1656 2263 
Q 1200 1991 1040 1758 
Q 881 1525 881 1297 
Q 881 1019 1103 719 
Q 1325 419 1731 419 
Q 1984 419 2254 576 
Q 2525 734 2688 984 
z
" id="ArialMT-26" transform="scale(0.015625)"/>
       </defs>
       <use xlink:href="#ArialMT-66"/>
       <use x="27.783203" xlink:href="#ArialMT-72"/>
       <use x="61.083984" xlink:href="#ArialMT-71"/>
       <use x="116.699219" xlink:href="#ArialMT-5f"/>
       <use x="172.314453" xlink:href="#ArialMT-5f"/>
       <use x="227.929688" xlink:href="#ArialMT-26"/>
      </g>
     </g>
    </g>
    <g id="ytick_25">
     <g id="text_29">
      <!-- frq__free -->
      <g style="fill:#262626;" transform="translate(98.944727 564.48591)scale(0.1375 -0.1375)">
       <use xlink:href="#ArialMT-66"/>
       <use x="27.783203" xlink:href="#ArialMT-72"/>
       <use x="61.083984" xlink:href="#ArialMT-71"/>
       <use x="116.699219" xlink:href="#ArialMT-5f"/>
       <use x="172.314453" xlink:href="#ArialMT-5f"/>
       <use x="227.929688" xlink:href="#ArialMT-66"/>
       <use x="255.712891" xlink:href="#ArialMT-72"/>
       <use x="289.013672" xlink:href="#ArialMT-65"/>
       <use x="344.628906" xlink:href="#ArialMT-65"/>
      </g>
     </g>
    </g>
   </g>
   <g id="QuadMesh_1">
    <path clip-path="url(#peb738669e0)" d="M 163.472656 28.119531 
L 237.872656 28.119531 
L 237.872656 49.863531 
L 163.472656 49.863531 
L 163.472656 28.119531 
" style="fill:#af5b57;stroke:#1a1a1a;stroke-width:0.1;"/>
    <path clip-path="url(#peb738669e0)" d="M 237.872656 28.119531 
L 312.272656 28.119531 
L 312.272656 49.863531 
L 237.872656 49.863531 
L 237.872656 28.119531 
" style="fill:#c5d3ec;stroke:#1a1a1a;stroke-width:0.1;"/>
    <path clip-path="url(#peb738669e0)" d="M 312.272656 28.119531 
L 386.672656 28.119531 
L 386.672656 49.863531 
L 312.272656 49.863531 
L 312.272656 28.119531 
" style="fill:#93a8df;stroke:#1a1a1a;stroke-width:0.1;"/>
    <path clip-path="url(#peb738669e0)" d="M 163.472656 49.863531 
L 237.872656 49.863531 
L 237.872656 71.607531 
L 163.472656 71.607531 
L 163.472656 49.863531 
" style="fill:#b3605b;stroke:#1a1a1a;stroke-width:0.1;"/>
    <path clip-path="url(#peb738669e0)" d="M 237.872656 49.863531 
L 312.272656 49.863531 
L 312.272656 71.607531 
L 237.872656 71.607531 
L 237.872656 49.863531 
" style="fill:#b3c6ec;stroke:#1a1a1a;stroke-width:0.1;"/>
    <path clip-path="url(#peb738669e0)" d="M 312.272656 49.863531 
L 386.672656 49.863531 
L 386.672656 71.607531 
L 312.272656 71.607531 
L 312.272656 49.863531 
" style="fill:#a8bde9;stroke:#1a1a1a;stroke-width:0.1;"/>
    <path clip-path="url(#peb738669e0)" d="M 163.472656 71.607531 
L 237.872656 71.607531 
L 237.872656 93.351531 
L 163.472656 93.351531 
L 163.472656 71.607531 
" style="fill:#be7267;stroke:#1a1a1a;stroke-width:0.1;"/>
    <path clip-path="url(#peb738669e0)" d="M 237.872656 71.607531 
L 312.272656 71.607531 
L 312.272656 93.351531 
L 237.872656 93.351531 
L 237.872656 71.607531 
" style="fill:#b7c9ec;stroke:#1a1a1a;stroke-width:0.1;"/>
    <path clip-path="url(#peb738669e0)" d="M 312.272656 71.607531 
L 386.672656 71.607531 
L 386.672656 93.351531 
L 312.272656 93.351531 
L 312.272656 71.607531 
" style="fill:#b1c4eb;stroke:#1a1a1a;stroke-width:0.1;"/>
    <path clip-path="url(#peb738669e0)" d="M 163.472656 93.351531 
L 237.872656 93.351531 
L 237.872656 115.095531 
L 163.472656 115.095531 
L 163.472656 93.351531 
" style="fill:#be7267;stroke:#1a1a1a;stroke-width:0.1;"/>
    <path clip-path="url(#peb738669e0)" d="M 237.872656 93.351531 
L 312.272656 93.351531 
L 312.272656 115.095531 
L 237.872656 115.095531 
L 237.872656 93.351531 
" style="fill:#b7c9ec;stroke:#1a1a1a;stroke-width:0.1;"/>
    <path clip-path="url(#peb738669e0)" d="M 312.272656 93.351531 
L 386.672656 93.351531 
L 386.672656 115.095531 
L 312.272656 115.095531 
L 312.272656 93.351531 
" style="fill:#b3c6ec;stroke:#1a1a1a;stroke-width:0.1;"/>
    <path clip-path="url(#peb738669e0)" d="M 163.472656 115.095531 
L 237.872656 115.095531 
L 237.872656 136.839531 
L 163.472656 136.839531 
L 163.472656 115.095531 
" style="fill:#ce8b7b;stroke:#1a1a1a;stroke-width:0.1;"/>
    <path clip-path="url(#peb738669e0)" d="M 237.872656 115.095531 
L 312.272656 115.095531 
L 312.272656 136.839531 
L 237.872656 136.839531 
L 237.872656 115.095531 
" style="fill:#bccded;stroke:#1a1a1a;stroke-width:0.1;"/>
    <path clip-path="url(#peb738669e0)" d="M 312.272656 115.095531 
L 386.672656 115.095531 
L 386.672656 136.839531 
L 312.272656 136.839531 
L 312.272656 115.095531 
" style="fill:#bccded;stroke:#1a1a1a;stroke-width:0.1;"/>
    <path clip-path="url(#peb738669e0)" d="M 163.472656 136.839531 
L 237.872656 136.839531 
L 237.872656 158.583531 
L 163.472656 158.583531 
L 163.472656 136.839531 
" style="fill:#ce8b7b;stroke:#1a1a1a;stroke-width:0.1;"/>
    <path clip-path="url(#peb738669e0)" d="M 237.872656 136.839531 
L 312.272656 136.839531 
L 312.272656 158.583531 
L 237.872656 158.583531 
L 237.872656 136.839531 
" style="fill:#b1c4eb;stroke:#1a1a1a;stroke-width:0.1;"/>
    <path clip-path="url(#peb738669e0)" d="M 312.272656 136.839531 
L 386.672656 136.839531 
L 386.672656 158.583531 
L 312.272656 158.583531 
L 312.272656 136.839531 
" style="fill:#c7d4eb;stroke:#1a1a1a;stroke-width:0.1;"/>
    <path clip-path="url(#peb738669e0)" d="M 163.472656 158.583531 
L 237.872656 158.583531 
L 237.872656 180.327531 
L 163.472656 180.327531 
L 163.472656 158.583531 
" style="fill:#ce8b7b;stroke:#1a1a1a;stroke-width:0.1;"/>
    <path clip-path="url(#peb738669e0)" d="M 237.872656 158.583531 
L 312.272656 158.583531 
L 312.272656 180.327531 
L 237.872656 180.327531 
L 237.872656 158.583531 
" style="fill:#9fb4e5;stroke:#1a1a1a;stroke-width:0.1;"/>
    <path clip-path="url(#peb738669e0)" d="M 312.272656 158.583531 
L 386.672656 158.583531 
L 386.672656 180.327531 
L 312.272656 180.327531 
L 312.272656 158.583531 
" style="fill:#d2dae7;stroke:#1a1a1a;stroke-width:0.1;"/>
    <path clip-path="url(#peb738669e0)" d="M 163.472656 180.327531 
L 237.872656 180.327531 
L 237.872656 202.071531 
L 163.472656 202.071531 
L 163.472656 180.327531 
" style="fill:#d08f7f;stroke:#1a1a1a;stroke-width:0.1;"/>
    <path clip-path="url(#peb738669e0)" d="M 237.872656 180.327531 
L 312.272656 180.327531 
L 312.272656 202.071531 
L 237.872656 202.071531 
L 237.872656 180.327531 
" style="fill:#c1d0ec;stroke:#1a1a1a;stroke-width:0.1;"/>
    <path clip-path="url(#peb738669e0)" d="M 312.272656 180.327531 
L 386.672656 180.327531 
L 386.672656 202.071531 
L 312.272656 202.071531 
L 312.272656 180.327531 
" style="fill:#b9caec;stroke:#1a1a1a;stroke-width:0.1;"/>
    <path clip-path="url(#peb738669e0)" d="M 163.472656 202.071531 
L 237.872656 202.071531 
L 237.872656 223.815531 
L 163.472656 223.815531 
L 163.472656 202.071531 
" style="fill:#d08f7f;stroke:#1a1a1a;stroke-width:0.1;"/>
    <path clip-path="url(#peb738669e0)" d="M 237.872656 202.071531 
L 312.272656 202.071531 
L 312.272656 223.815531 
L 237.872656 223.815531 
L 237.872656 202.071531 
" style="fill:#b1c4eb;stroke:#1a1a1a;stroke-width:0.1;"/>
    <path clip-path="url(#peb738669e0)" d="M 312.272656 202.071531 
L 386.672656 202.071531 
L 386.672656 223.815531 
L 312.272656 223.815531 
L 312.272656 202.071531 
" style="fill:#cad6eb;stroke:#1a1a1a;stroke-width:0.1;"/>
    <path clip-path="url(#peb738669e0)" d="M 163.472656 223.815531 
L 237.872656 223.815531 
L 237.872656 245.559531 
L 163.472656 245.559531 
L 163.472656 223.815531 
" style="fill:#d29281;stroke:#1a1a1a;stroke-width:0.1;"/>
    <path clip-path="url(#peb738669e0)" d="M 237.872656 223.815531 
L 312.272656 223.815531 
L 312.272656 245.559531 
L 237.872656 245.559531 
L 237.872656 223.815531 
" style="fill:#cad6eb;stroke:#1a1a1a;stroke-width:0.1;"/>
    <path clip-path="url(#peb738669e0)" d="M 312.272656 223.815531 
L 386.672656 223.815531 
L 386.672656 245.559531 
L 312.272656 245.559531 
L 312.272656 223.815531 
" style="fill:#b3c6ec;stroke:#1a1a1a;stroke-width:0.1;"/>
    <path clip-path="url(#peb738669e0)" d="M 163.472656 245.559531 
L 237.872656 245.559531 
L 237.872656 267.303531 
L 163.472656 267.303531 
L 163.472656 245.559531 
" style="fill:#d49785;stroke:#1a1a1a;stroke-width:0.1;"/>
    <path clip-path="url(#peb738669e0)" d="M 237.872656 245.559531 
L 312.272656 245.559531 
L 312.272656 267.303531 
L 237.872656 267.303531 
L 237.872656 245.559531 
" style="fill:#cad6eb;stroke:#1a1a1a;stroke-width:0.1;"/>
    <path clip-path="url(#peb738669e0)" d="M 312.272656 245.559531 
L 386.672656 245.559531 
L 386.672656 267.303531 
L 312.272656 267.303531 
L 312.272656 245.559531 
" style="fill:#b7c9ec;stroke:#1a1a1a;stroke-width:0.1;"/>
    <path clip-path="url(#peb738669e0)" d="M 163.472656 267.303531 
L 237.872656 267.303531 
L 237.872656 289.047531 
L 163.472656 289.047531 
L 163.472656 267.303531 
" style="fill:#d49785;stroke:#1a1a1a;stroke-width:0.1;"/>
    <path clip-path="url(#peb738669e0)" d="M 237.872656 267.303531 
L 312.272656 267.303531 
L 312.272656 289.047531 
L 237.872656 289.047531 
L 237.872656 267.303531 
" style="fill:#bccded;stroke:#1a1a1a;stroke-width:0.1;"/>
    <path clip-path="url(#peb738669e0)" d="M 312.272656 267.303531 
L 386.672656 267.303531 
L 386.672656 289.047531 
L 312.272656 289.047531 
L 312.272656 267.303531 
" style="fill:#c3d1ec;stroke:#1a1a1a;stroke-width:0.1;"/>
    <path clip-path="url(#peb738669e0)" d="M 163.472656 289.047531 
L 237.872656 289.047531 
L 237.872656 310.791531 
L 163.472656 310.791531 
L 163.472656 289.047531 
" style="fill:#d49785;stroke:#1a1a1a;stroke-width:0.1;"/>
    <path clip-path="url(#peb738669e0)" d="M 237.872656 289.047531 
L 312.272656 289.047531 
L 312.272656 310.791531 
L 237.872656 310.791531 
L 237.872656 289.047531 
" style="fill:#91a6dd;stroke:#1a1a1a;stroke-width:0.1;"/>
    <path clip-path="url(#peb738669e0)" d="M 312.272656 289.047531 
L 386.672656 289.047531 
L 386.672656 310.791531 
L 312.272656 310.791531 
L 312.272656 289.047531 
" style="fill:#e0dad7;stroke:#1a1a1a;stroke-width:0.1;"/>
    <path clip-path="url(#peb738669e0)" d="M 163.472656 310.791531 
L 237.872656 310.791531 
L 237.872656 332.535531 
L 163.472656 332.535531 
L 163.472656 310.791531 
" style="fill:#d49785;stroke:#1a1a1a;stroke-width:0.1;"/>
    <path clip-path="url(#peb738669e0)" d="M 237.872656 310.791531 
L 312.272656 310.791531 
L 312.272656 332.535531 
L 237.872656 332.535531 
L 237.872656 310.791531 
" style="fill:#99aee2;stroke:#1a1a1a;stroke-width:0.1;"/>
    <path clip-path="url(#peb738669e0)" d="M 312.272656 310.791531 
L 386.672656 310.791531 
L 386.672656 332.535531 
L 312.272656 332.535531 
L 312.272656 310.791531 
" style="fill:#dcddde;stroke:#1a1a1a;stroke-width:0.1;"/>
    <path clip-path="url(#peb738669e0)" d="M 163.472656 332.535531 
L 237.872656 332.535531 
L 237.872656 354.279531 
L 163.472656 354.279531 
L 163.472656 332.535531 
" style="fill:#d69a88;stroke:#1a1a1a;stroke-width:0.1;"/>
    <path clip-path="url(#peb738669e0)" d="M 237.872656 332.535531 
L 312.272656 332.535531 
L 312.272656 354.279531 
L 237.872656 354.279531 
L 237.872656 332.535531 
" style="fill:#c3d1ec;stroke:#1a1a1a;stroke-width:0.1;"/>
    <path clip-path="url(#peb738669e0)" d="M 312.272656 332.535531 
L 386.672656 332.535531 
L 386.672656 354.279531 
L 312.272656 354.279531 
L 312.272656 332.535531 
" style="fill:#c1d0ec;stroke:#1a1a1a;stroke-width:0.1;"/>
    <path clip-path="url(#peb738669e0)" d="M 163.472656 354.279531 
L 237.872656 354.279531 
L 237.872656 376.023531 
L 163.472656 376.023531 
L 163.472656 354.279531 
" style="fill:#d89e8c;stroke:#1a1a1a;stroke-width:0.1;"/>
    <path clip-path="url(#peb738669e0)" d="M 237.872656 354.279531 
L 312.272656 354.279531 
L 312.272656 376.023531 
L 237.872656 376.023531 
L 237.872656 354.279531 
" style="fill:#beceed;stroke:#1a1a1a;stroke-width:0.1;"/>
    <path clip-path="url(#peb738669e0)" d="M 312.272656 354.279531 
L 386.672656 354.279531 
L 386.672656 376.023531 
L 312.272656 376.023531 
L 312.272656 354.279531 
" style="fill:#c7d4eb;stroke:#1a1a1a;stroke-width:0.1;"/>
    <path clip-path="url(#peb738669e0)" d="M 163.472656 376.023531 
L 237.872656 376.023531 
L 237.872656 397.767531 
L 163.472656 397.767531 
L 163.472656 376.023531 
" style="fill:#d9a18e;stroke:#1a1a1a;stroke-width:0.1;"/>
    <path clip-path="url(#peb738669e0)" d="M 237.872656 376.023531 
L 312.272656 376.023531 
L 312.272656 397.767531 
L 237.872656 397.767531 
L 237.872656 376.023531 
" style="fill:#99aee2;stroke:#1a1a1a;stroke-width:0.1;"/>
    <path clip-path="url(#peb738669e0)" d="M 312.272656 376.023531 
L 386.672656 376.023531 
L 386.672656 397.767531 
L 312.272656 397.767531 
L 312.272656 376.023531 
" style="fill:#e0dad7;stroke:#1a1a1a;stroke-width:0.1;"/>
    <path clip-path="url(#peb738669e0)" d="M 163.472656 397.767531 
L 237.872656 397.767531 
L 237.872656 419.511531 
L 163.472656 419.511531 
L 163.472656 397.767531 
" style="fill:#dda795;stroke:#1a1a1a;stroke-width:0.1;"/>
    <path clip-path="url(#peb738669e0)" d="M 237.872656 397.767531 
L 312.272656 397.767531 
L 312.272656 419.511531 
L 237.872656 419.511531 
L 237.872656 397.767531 
" style="fill:#97ace1;stroke:#1a1a1a;stroke-width:0.1;"/>
    <path clip-path="url(#peb738669e0)" d="M 312.272656 397.767531 
L 386.672656 397.767531 
L 386.672656 419.511531 
L 312.272656 419.511531 
L 312.272656 397.767531 
" style="fill:#e3d7d0;stroke:#1a1a1a;stroke-width:0.1;"/>
    <path clip-path="url(#peb738669e0)" d="M 163.472656 419.511531 
L 237.872656 419.511531 
L 237.872656 441.255531 
L 163.472656 441.255531 
L 163.472656 419.511531 
" style="fill:#e6cec1;stroke:#1a1a1a;stroke-width:0.1;"/>
    <path clip-path="url(#peb738669e0)" d="M 237.872656 419.511531 
L 312.272656 419.511531 
L 312.272656 441.255531 
L 237.872656 441.255531 
L 237.872656 419.511531 
" style="fill:#91a6dd;stroke:#1a1a1a;stroke-width:0.1;"/>
    <path clip-path="url(#peb738669e0)" d="M 312.272656 419.511531 
L 386.672656 419.511531 
L 386.672656 441.255531 
L 312.272656 441.255531 
L 312.272656 419.511531 
" style="fill:#e2b5a3;stroke:#1a1a1a;stroke-width:0.1;"/>
    <path clip-path="url(#peb738669e0)" d="M 163.472656 441.255531 
L 237.872656 441.255531 
L 237.872656 462.999531 
L 163.472656 462.999531 
L 163.472656 441.255531 
" style="fill:#e5d1c7;stroke:#1a1a1a;stroke-width:0.1;"/>
    <path clip-path="url(#peb738669e0)" d="M 237.872656 441.255531 
L 312.272656 441.255531 
L 312.272656 462.999531 
L 237.872656 462.999531 
L 237.872656 441.255531 
" style="fill:#e2b5a3;stroke:#1a1a1a;stroke-width:0.1;"/>
    <path clip-path="url(#peb738669e0)" d="M 312.272656 441.255531 
L 386.672656 441.255531 
L 386.672656 462.999531 
L 312.272656 462.999531 
L 312.272656 441.255531 
" style="fill:#99aee2;stroke:#1a1a1a;stroke-width:0.1;"/>
    <path clip-path="url(#peb738669e0)" d="M 163.472656 462.999531 
L 237.872656 462.999531 
L 237.872656 484.743531 
L 163.472656 484.743531 
L 163.472656 462.999531 
" style="fill:#dcddde;stroke:#1a1a1a;stroke-width:0.1;"/>
    <path clip-path="url(#peb738669e0)" d="M 237.872656 462.999531 
L 312.272656 462.999531 
L 312.272656 484.743531 
L 237.872656 484.743531 
L 237.872656 462.999531 
" style="fill:#7d90cf;stroke:#1a1a1a;stroke-width:0.1;"/>
    <path clip-path="url(#peb738669e0)" d="M 312.272656 462.999531 
L 386.672656 462.999531 
L 386.672656 484.743531 
L 312.272656 484.743531 
L 312.272656 462.999531 
" style="fill:#be7267;stroke:#1a1a1a;stroke-width:0.1;"/>
    <path clip-path="url(#peb738669e0)" d="M 163.472656 484.743531 
L 237.872656 484.743531 
L 237.872656 506.487531 
L 163.472656 506.487531 
L 163.472656 484.743531 
" style="fill:#c1d0ec;stroke:#1a1a1a;stroke-width:0.1;"/>
    <path clip-path="url(#peb738669e0)" d="M 237.872656 484.743531 
L 312.272656 484.743531 
L 312.272656 506.487531 
L 237.872656 506.487531 
L 237.872656 484.743531 
" style="fill:#abbfea;stroke:#1a1a1a;stroke-width:0.1;"/>
    <path clip-path="url(#peb738669e0)" d="M 312.272656 484.743531 
L 386.672656 484.743531 
L 386.672656 506.487531 
L 312.272656 506.487531 
L 312.272656 484.743531 
" style="fill:#c47b6e;stroke:#1a1a1a;stroke-width:0.1;"/>
    <path clip-path="url(#peb738669e0)" d="M 163.472656 506.487531 
L 237.872656 506.487531 
L 237.872656 528.231531 
L 163.472656 528.231531 
L 163.472656 506.487531 
" style="fill:#bccded;stroke:#1a1a1a;stroke-width:0.1;"/>
    <path clip-path="url(#peb738669e0)" d="M 237.872656 506.487531 
L 312.272656 506.487531 
L 312.272656 528.231531 
L 237.872656 528.231531 
L 237.872656 506.487531 
" style="fill:#8b9fd9;stroke:#1a1a1a;stroke-width:0.1;"/>
    <path clip-path="url(#peb738669e0)" d="M 312.272656 506.487531 
L 386.672656 506.487531 
L 386.672656 528.231531 
L 312.272656 528.231531 
L 312.272656 506.487531 
" style="fill:#952f3f;stroke:#1a1a1a;stroke-width:0.1;"/>
    <path clip-path="url(#peb738669e0)" d="M 163.472656 528.231531 
L 237.872656 528.231531 
L 237.872656 549.975531 
L 163.472656 549.975531 
L 163.472656 528.231531 
" style="fill:#abbfea;stroke:#1a1a1a;stroke-width:0.1;"/>
    <path clip-path="url(#peb738669e0)" d="M 237.872656 528.231531 
L 312.272656 528.231531 
L 312.272656 549.975531 
L 237.872656 549.975531 
L 237.872656 528.231531 
" style="fill:#c78071;stroke:#1a1a1a;stroke-width:0.1;"/>
    <path clip-path="url(#peb738669e0)" d="M 312.272656 528.231531 
L 386.672656 528.231531 
L 386.672656 549.975531 
L 312.272656 549.975531 
L 312.272656 528.231531 
" style="fill:#c5d3ec;stroke:#1a1a1a;stroke-width:0.1;"/>
    <path clip-path="url(#peb738669e0)" d="M 163.472656 549.975531 
L 237.872656 549.975531 
L 237.872656 571.719531 
L 163.472656 571.719531 
L 163.472656 549.975531 
" style="fill:#a8bde9;stroke:#1a1a1a;stroke-width:0.1;"/>
    <path clip-path="url(#peb738669e0)" d="M 237.872656 549.975531 
L 312.272656 549.975531 
L 312.272656 571.719531 
L 237.872656 571.719531 
L 237.872656 549.975531 
" style="fill:#d89e8c;stroke:#1a1a1a;stroke-width:0.1;"/>
    <path clip-path="url(#peb738669e0)" d="M 312.272656 549.975531 
L 386.672656 549.975531 
L 386.672656 571.719531 
L 312.272656 571.719531 
L 312.272656 549.975531 
" style="fill:#d6dbe4;stroke:#1a1a1a;stroke-width:0.1;"/>
   </g>
   <g id="text_30">
    <!-- 4.16 -->
    <g style="fill:#ffffff;" transform="translate(190.942187 41.576687)scale(0.1 -0.1)">
     <defs>
      <path d="M 2069 0 
L 2069 1097 
L 81 1097 
L 81 1613 
L 2172 4581 
L 2631 4581 
L 2631 1613 
L 3250 1613 
L 3250 1097 
L 2631 1097 
L 2631 0 
L 2069 0 
z
M 2069 1613 
L 2069 3678 
L 634 1613 
L 2069 1613 
z
" id="ArialMT-34" transform="scale(0.015625)"/>
      <path d="M 2384 0 
L 1822 0 
L 1822 3584 
Q 1619 3391 1289 3197 
Q 959 3003 697 2906 
L 697 3450 
Q 1169 3672 1522 3987 
Q 1875 4303 2022 4600 
L 2384 4600 
L 2384 0 
z
" id="ArialMT-31" transform="scale(0.015625)"/>
      <path d="M 3184 3459 
L 2625 3416 
Q 2550 3747 2413 3897 
Q 2184 4138 1850 4138 
Q 1581 4138 1378 3988 
Q 1113 3794 959 3422 
Q 806 3050 800 2363 
Q 1003 2672 1297 2822 
Q 1591 2972 1913 2972 
Q 2475 2972 2870 2558 
Q 3266 2144 3266 1488 
Q 3266 1056 3080 686 
Q 2894 316 2569 119 
Q 2244 -78 1831 -78 
Q 1128 -78 684 439 
Q 241 956 241 2144 
Q 241 3472 731 4075 
Q 1159 4600 1884 4600 
Q 2425 4600 2770 4297 
Q 3116 3994 3184 3459 
z
M 888 1484 
Q 888 1194 1011 928 
Q 1134 663 1356 523 
Q 1578 384 1822 384 
Q 2178 384 2434 671 
Q 2691 959 2691 1453 
Q 2691 1928 2437 2201 
Q 2184 2475 1800 2475 
Q 1419 2475 1153 2201 
Q 888 1928 888 1484 
z
" id="ArialMT-36" transform="scale(0.015625)"/>
     </defs>
     <use xlink:href="#ArialMT-34"/>
     <use x="55.615234" xlink:href="#ArialMT-2e"/>
     <use x="83.398438" xlink:href="#ArialMT-31"/>
     <use x="139.013672" xlink:href="#ArialMT-36"/>
    </g>
   </g>
   <g id="text_31">
    <!-- -1.21 -->
    <g style="fill:#262626;" transform="translate(263.677344 41.576687)scale(0.1 -0.1)">
     <defs>
      <path d="M 203 1375 
L 203 1941 
L 1931 1941 
L 1931 1375 
L 203 1375 
z
" id="ArialMT-2d" transform="scale(0.015625)"/>
      <path d="M 3222 541 
L 3222 0 
L 194 0 
Q 188 203 259 391 
Q 375 700 629 1000 
Q 884 1300 1366 1694 
Q 2113 2306 2375 2664 
Q 2638 3022 2638 3341 
Q 2638 3675 2398 3904 
Q 2159 4134 1775 4134 
Q 1369 4134 1125 3890 
Q 881 3647 878 3216 
L 300 3275 
Q 359 3922 746 4261 
Q 1134 4600 1788 4600 
Q 2447 4600 2831 4234 
Q 3216 3869 3216 3328 
Q 3216 3053 3103 2787 
Q 2991 2522 2730 2228 
Q 2469 1934 1863 1422 
Q 1356 997 1212 845 
Q 1069 694 975 541 
L 3222 541 
z
" id="ArialMT-32" transform="scale(0.015625)"/>
     </defs>
     <use xlink:href="#ArialMT-2d"/>
     <use x="33.300781" xlink:href="#ArialMT-31"/>
     <use x="88.916016" xlink:href="#ArialMT-2e"/>
     <use x="116.699219" xlink:href="#ArialMT-32"/>
     <use x="172.314453" xlink:href="#ArialMT-31"/>
    </g>
   </g>
   <g id="text_32">
    <!-- -2.94 -->
    <g style="fill:#ffffff;" transform="translate(338.077344 41.576687)scale(0.1 -0.1)">
     <defs>
      <path d="M 350 1059 
L 891 1109 
Q 959 728 1153 556 
Q 1347 384 1650 384 
Q 1909 384 2104 503 
Q 2300 622 2425 820 
Q 2550 1019 2634 1356 
Q 2719 1694 2719 2044 
Q 2719 2081 2716 2156 
Q 2547 1888 2255 1720 
Q 1963 1553 1622 1553 
Q 1053 1553 659 1965 
Q 266 2378 266 3053 
Q 266 3750 677 4175 
Q 1088 4600 1706 4600 
Q 2153 4600 2523 4359 
Q 2894 4119 3086 3673 
Q 3278 3228 3278 2384 
Q 3278 1506 3087 986 
Q 2897 466 2520 194 
Q 2144 -78 1638 -78 
Q 1100 -78 759 220 
Q 419 519 350 1059 
z
M 2653 3081 
Q 2653 3566 2395 3850 
Q 2138 4134 1775 4134 
Q 1400 4134 1122 3828 
Q 844 3522 844 3034 
Q 844 2597 1108 2323 
Q 1372 2050 1759 2050 
Q 2150 2050 2401 2323 
Q 2653 2597 2653 3081 
z
" id="ArialMT-39" transform="scale(0.015625)"/>
     </defs>
     <use xlink:href="#ArialMT-2d"/>
     <use x="33.300781" xlink:href="#ArialMT-32"/>
     <use x="88.916016" xlink:href="#ArialMT-2e"/>
     <use x="116.699219" xlink:href="#ArialMT-39"/>
     <use x="172.314453" xlink:href="#ArialMT-34"/>
    </g>
   </g>
   <g id="text_33">
    <!-- 4.07 -->
    <g style="fill:#ffffff;" transform="translate(190.942187 63.320687)scale(0.1 -0.1)">
     <defs>
      <path d="M 266 2259 
Q 266 3072 433 3567 
Q 600 4063 929 4331 
Q 1259 4600 1759 4600 
Q 2128 4600 2406 4451 
Q 2684 4303 2865 4023 
Q 3047 3744 3150 3342 
Q 3253 2941 3253 2259 
Q 3253 1453 3087 958 
Q 2922 463 2592 192 
Q 2263 -78 1759 -78 
Q 1097 -78 719 397 
Q 266 969 266 2259 
z
M 844 2259 
Q 844 1131 1108 757 
Q 1372 384 1759 384 
Q 2147 384 2411 759 
Q 2675 1134 2675 2259 
Q 2675 3391 2411 3762 
Q 2147 4134 1753 4134 
Q 1366 4134 1134 3806 
Q 844 3388 844 2259 
z
" id="ArialMT-30" transform="scale(0.015625)"/>
      <path d="M 303 3981 
L 303 4522 
L 3269 4522 
L 3269 4084 
Q 2831 3619 2401 2847 
Q 1972 2075 1738 1259 
Q 1569 684 1522 0 
L 944 0 
Q 953 541 1156 1306 
Q 1359 2072 1739 2783 
Q 2119 3494 2547 3981 
L 303 3981 
z
" id="ArialMT-37" transform="scale(0.015625)"/>
     </defs>
     <use xlink:href="#ArialMT-34"/>
     <use x="55.615234" xlink:href="#ArialMT-2e"/>
     <use x="83.398438" xlink:href="#ArialMT-30"/>
     <use x="139.013672" xlink:href="#ArialMT-37"/>
    </g>
   </g>
   <g id="text_34">
    <!-- -1.83 -->
    <g style="fill:#262626;" transform="translate(263.677344 63.320687)scale(0.1 -0.1)">
     <defs>
      <path d="M 1131 2484 
Q 781 2613 612 2850 
Q 444 3088 444 3419 
Q 444 3919 803 4259 
Q 1163 4600 1759 4600 
Q 2359 4600 2725 4251 
Q 3091 3903 3091 3403 
Q 3091 3084 2923 2848 
Q 2756 2613 2416 2484 
Q 2838 2347 3058 2040 
Q 3278 1734 3278 1309 
Q 3278 722 2862 322 
Q 2447 -78 1769 -78 
Q 1091 -78 675 323 
Q 259 725 259 1325 
Q 259 1772 486 2073 
Q 713 2375 1131 2484 
z
M 1019 3438 
Q 1019 3113 1228 2906 
Q 1438 2700 1772 2700 
Q 2097 2700 2305 2904 
Q 2513 3109 2513 3406 
Q 2513 3716 2298 3927 
Q 2084 4138 1766 4138 
Q 1444 4138 1231 3931 
Q 1019 3725 1019 3438 
z
M 838 1322 
Q 838 1081 952 856 
Q 1066 631 1291 507 
Q 1516 384 1775 384 
Q 2178 384 2440 643 
Q 2703 903 2703 1303 
Q 2703 1709 2433 1975 
Q 2163 2241 1756 2241 
Q 1359 2241 1098 1978 
Q 838 1716 838 1322 
z
" id="ArialMT-38" transform="scale(0.015625)"/>
      <path d="M 269 1209 
L 831 1284 
Q 928 806 1161 595 
Q 1394 384 1728 384 
Q 2125 384 2398 659 
Q 2672 934 2672 1341 
Q 2672 1728 2419 1979 
Q 2166 2231 1775 2231 
Q 1616 2231 1378 2169 
L 1441 2663 
Q 1497 2656 1531 2656 
Q 1891 2656 2178 2843 
Q 2466 3031 2466 3422 
Q 2466 3731 2256 3934 
Q 2047 4138 1716 4138 
Q 1388 4138 1169 3931 
Q 950 3725 888 3313 
L 325 3413 
Q 428 3978 793 4289 
Q 1159 4600 1703 4600 
Q 2078 4600 2393 4439 
Q 2709 4278 2876 4000 
Q 3044 3722 3044 3409 
Q 3044 3113 2884 2869 
Q 2725 2625 2413 2481 
Q 2819 2388 3044 2092 
Q 3269 1797 3269 1353 
Q 3269 753 2831 336 
Q 2394 -81 1725 -81 
Q 1122 -81 723 278 
Q 325 638 269 1209 
z
" id="ArialMT-33" transform="scale(0.015625)"/>
     </defs>
     <use xlink:href="#ArialMT-2d"/>
     <use x="33.300781" xlink:href="#ArialMT-31"/>
     <use x="88.916016" xlink:href="#ArialMT-2e"/>
     <use x="116.699219" xlink:href="#ArialMT-38"/>
     <use x="172.314453" xlink:href="#ArialMT-33"/>
    </g>
   </g>
   <g id="text_35">
    <!-- -2.24 -->
    <g style="fill:#262626;" transform="translate(338.077344 63.320687)scale(0.1 -0.1)">
     <use xlink:href="#ArialMT-2d"/>
     <use x="33.300781" xlink:href="#ArialMT-32"/>
     <use x="88.916016" xlink:href="#ArialMT-2e"/>
     <use x="116.699219" xlink:href="#ArialMT-32"/>
     <use x="172.314453" xlink:href="#ArialMT-34"/>
    </g>
   </g>
   <g id="text_36">
    <!-- 3.72 -->
    <g style="fill:#ffffff;" transform="translate(190.942187 85.064687)scale(0.1 -0.1)">
     <use xlink:href="#ArialMT-33"/>
     <use x="55.615234" xlink:href="#ArialMT-2e"/>
     <use x="83.398438" xlink:href="#ArialMT-37"/>
     <use x="139.013672" xlink:href="#ArialMT-32"/>
    </g>
   </g>
   <g id="text_37">
    <!-- -1.72 -->
    <g style="fill:#262626;" transform="translate(263.677344 85.064687)scale(0.1 -0.1)">
     <use xlink:href="#ArialMT-2d"/>
     <use x="33.300781" xlink:href="#ArialMT-31"/>
     <use x="88.916016" xlink:href="#ArialMT-2e"/>
     <use x="116.699219" xlink:href="#ArialMT-37"/>
     <use x="172.314453" xlink:href="#ArialMT-32"/>
    </g>
   </g>
   <g id="text_38">
    <!-- -1.99 -->
    <g style="fill:#262626;" transform="translate(338.077344 85.064687)scale(0.1 -0.1)">
     <use xlink:href="#ArialMT-2d"/>
     <use x="33.300781" xlink:href="#ArialMT-31"/>
     <use x="88.916016" xlink:href="#ArialMT-2e"/>
     <use x="116.699219" xlink:href="#ArialMT-39"/>
     <use x="172.314453" xlink:href="#ArialMT-39"/>
    </g>
   </g>
   <g id="text_39">
    <!-- 3.64 -->
    <g style="fill:#ffffff;" transform="translate(190.942187 106.808687)scale(0.1 -0.1)">
     <use xlink:href="#ArialMT-33"/>
     <use x="55.615234" xlink:href="#ArialMT-2e"/>
     <use x="83.398438" xlink:href="#ArialMT-36"/>
     <use x="139.013672" xlink:href="#ArialMT-34"/>
    </g>
   </g>
   <g id="text_40">
    <!-- -1.75 -->
    <g style="fill:#262626;" transform="translate(263.677344 106.808687)scale(0.1 -0.1)">
     <defs>
      <path d="M 266 1200 
L 856 1250 
Q 922 819 1161 601 
Q 1400 384 1738 384 
Q 2144 384 2425 690 
Q 2706 997 2706 1503 
Q 2706 1984 2436 2262 
Q 2166 2541 1728 2541 
Q 1456 2541 1237 2417 
Q 1019 2294 894 2097 
L 366 2166 
L 809 4519 
L 3088 4519 
L 3088 3981 
L 1259 3981 
L 1013 2750 
Q 1425 3038 1878 3038 
Q 2478 3038 2890 2622 
Q 3303 2206 3303 1553 
Q 3303 931 2941 478 
Q 2500 -78 1738 -78 
Q 1113 -78 717 272 
Q 322 622 266 1200 
z
" id="ArialMT-35" transform="scale(0.015625)"/>
     </defs>
     <use xlink:href="#ArialMT-2d"/>
     <use x="33.300781" xlink:href="#ArialMT-31"/>
     <use x="88.916016" xlink:href="#ArialMT-2e"/>
     <use x="116.699219" xlink:href="#ArialMT-37"/>
     <use x="172.314453" xlink:href="#ArialMT-35"/>
    </g>
   </g>
   <g id="text_41">
    <!-- -1.89 -->
    <g style="fill:#262626;" transform="translate(338.077344 106.808687)scale(0.1 -0.1)">
     <use xlink:href="#ArialMT-2d"/>
     <use x="33.300781" xlink:href="#ArialMT-31"/>
     <use x="88.916016" xlink:href="#ArialMT-2e"/>
     <use x="116.699219" xlink:href="#ArialMT-38"/>
     <use x="172.314453" xlink:href="#ArialMT-39"/>
    </g>
   </g>
   <g id="text_42">
    <!-- 3.16 -->
    <g style="fill:#ffffff;" transform="translate(190.942187 128.552687)scale(0.1 -0.1)">
     <use xlink:href="#ArialMT-33"/>
     <use x="55.615234" xlink:href="#ArialMT-2e"/>
     <use x="83.398438" xlink:href="#ArialMT-31"/>
     <use x="139.013672" xlink:href="#ArialMT-36"/>
    </g>
   </g>
   <g id="text_43">
    <!-- -1.60 -->
    <g style="fill:#262626;" transform="translate(263.677344 128.552687)scale(0.1 -0.1)">
     <use xlink:href="#ArialMT-2d"/>
     <use x="33.300781" xlink:href="#ArialMT-31"/>
     <use x="88.916016" xlink:href="#ArialMT-2e"/>
     <use x="116.699219" xlink:href="#ArialMT-36"/>
     <use x="172.314453" xlink:href="#ArialMT-30"/>
    </g>
   </g>
   <g id="text_44">
    <!-- -1.57 -->
    <g style="fill:#262626;" transform="translate(338.077344 128.552687)scale(0.1 -0.1)">
     <use xlink:href="#ArialMT-2d"/>
     <use x="33.300781" xlink:href="#ArialMT-31"/>
     <use x="88.916016" xlink:href="#ArialMT-2e"/>
     <use x="116.699219" xlink:href="#ArialMT-35"/>
     <use x="172.314453" xlink:href="#ArialMT-37"/>
    </g>
   </g>
   <g id="text_45">
    <!-- 3.13 -->
    <g style="fill:#ffffff;" transform="translate(190.942187 150.296687)scale(0.1 -0.1)">
     <use xlink:href="#ArialMT-33"/>
     <use x="55.615234" xlink:href="#ArialMT-2e"/>
     <use x="83.398438" xlink:href="#ArialMT-31"/>
     <use x="139.013672" xlink:href="#ArialMT-33"/>
    </g>
   </g>
   <g id="text_46">
    <!-- -1.98 -->
    <g style="fill:#262626;" transform="translate(263.677344 150.296687)scale(0.1 -0.1)">
     <use xlink:href="#ArialMT-2d"/>
     <use x="33.300781" xlink:href="#ArialMT-31"/>
     <use x="88.916016" xlink:href="#ArialMT-2e"/>
     <use x="116.699219" xlink:href="#ArialMT-39"/>
     <use x="172.314453" xlink:href="#ArialMT-38"/>
    </g>
   </g>
   <g id="text_47">
    <!-- -1.15 -->
    <g style="fill:#262626;" transform="translate(338.077344 150.296687)scale(0.1 -0.1)">
     <use xlink:href="#ArialMT-2d"/>
     <use x="33.300781" xlink:href="#ArialMT-31"/>
     <use x="88.916016" xlink:href="#ArialMT-2e"/>
     <use x="116.699219" xlink:href="#ArialMT-31"/>
     <use x="172.314453" xlink:href="#ArialMT-35"/>
    </g>
   </g>
   <g id="text_48">
    <!-- 3.11 -->
    <g style="fill:#ffffff;" transform="translate(191.310937 172.040687)scale(0.1 -0.1)">
     <use xlink:href="#ArialMT-33"/>
     <use x="55.615234" xlink:href="#ArialMT-2e"/>
     <use x="83.398438" xlink:href="#ArialMT-31"/>
     <use x="131.638672" xlink:href="#ArialMT-31"/>
    </g>
   </g>
   <g id="text_49">
    <!-- -2.52 -->
    <g style="fill:#262626;" transform="translate(263.677344 172.040687)scale(0.1 -0.1)">
     <use xlink:href="#ArialMT-2d"/>
     <use x="33.300781" xlink:href="#ArialMT-32"/>
     <use x="88.916016" xlink:href="#ArialMT-2e"/>
     <use x="116.699219" xlink:href="#ArialMT-35"/>
     <use x="172.314453" xlink:href="#ArialMT-32"/>
    </g>
   </g>
   <g id="text_50">
    <!-- -0.58 -->
    <g style="fill:#262626;" transform="translate(338.077344 172.040687)scale(0.1 -0.1)">
     <use xlink:href="#ArialMT-2d"/>
     <use x="33.300781" xlink:href="#ArialMT-30"/>
     <use x="88.916016" xlink:href="#ArialMT-2e"/>
     <use x="116.699219" xlink:href="#ArialMT-35"/>
     <use x="172.314453" xlink:href="#ArialMT-38"/>
    </g>
   </g>
   <g id="text_51">
    <!-- 3.02 -->
    <g style="fill:#ffffff;" transform="translate(190.942187 193.784687)scale(0.1 -0.1)">
     <use xlink:href="#ArialMT-33"/>
     <use x="55.615234" xlink:href="#ArialMT-2e"/>
     <use x="83.398438" xlink:href="#ArialMT-30"/>
     <use x="139.013672" xlink:href="#ArialMT-32"/>
    </g>
   </g>
   <g id="text_52">
    <!-- -1.37 -->
    <g style="fill:#262626;" transform="translate(263.677344 193.784687)scale(0.1 -0.1)">
     <use xlink:href="#ArialMT-2d"/>
     <use x="33.300781" xlink:href="#ArialMT-31"/>
     <use x="88.916016" xlink:href="#ArialMT-2e"/>
     <use x="116.699219" xlink:href="#ArialMT-33"/>
     <use x="172.314453" xlink:href="#ArialMT-37"/>
    </g>
   </g>
   <g id="text_53">
    <!-- -1.66 -->
    <g style="fill:#262626;" transform="translate(338.077344 193.784687)scale(0.1 -0.1)">
     <use xlink:href="#ArialMT-2d"/>
     <use x="33.300781" xlink:href="#ArialMT-31"/>
     <use x="88.916016" xlink:href="#ArialMT-2e"/>
     <use x="116.699219" xlink:href="#ArialMT-36"/>
     <use x="172.314453" xlink:href="#ArialMT-36"/>
    </g>
   </g>
   <g id="text_54">
    <!-- 3.00 -->
    <g style="fill:#ffffff;" transform="translate(190.942187 215.528687)scale(0.1 -0.1)">
     <use xlink:href="#ArialMT-33"/>
     <use x="55.615234" xlink:href="#ArialMT-2e"/>
     <use x="83.398438" xlink:href="#ArialMT-30"/>
     <use x="139.013672" xlink:href="#ArialMT-30"/>
    </g>
   </g>
   <g id="text_55">
    <!-- -2.01 -->
    <g style="fill:#262626;" transform="translate(263.677344 215.528687)scale(0.1 -0.1)">
     <use xlink:href="#ArialMT-2d"/>
     <use x="33.300781" xlink:href="#ArialMT-32"/>
     <use x="88.916016" xlink:href="#ArialMT-2e"/>
     <use x="116.699219" xlink:href="#ArialMT-30"/>
     <use x="172.314453" xlink:href="#ArialMT-31"/>
    </g>
   </g>
   <g id="text_56">
    <!-- -1.00 -->
    <g style="fill:#262626;" transform="translate(338.077344 215.528687)scale(0.1 -0.1)">
     <use xlink:href="#ArialMT-2d"/>
     <use x="33.300781" xlink:href="#ArialMT-31"/>
     <use x="88.916016" xlink:href="#ArialMT-2e"/>
     <use x="116.699219" xlink:href="#ArialMT-30"/>
     <use x="172.314453" xlink:href="#ArialMT-30"/>
    </g>
   </g>
   <g id="text_57">
    <!-- 2.89 -->
    <g style="fill:#ffffff;" transform="translate(190.942187 237.272687)scale(0.1 -0.1)">
     <use xlink:href="#ArialMT-32"/>
     <use x="55.615234" xlink:href="#ArialMT-2e"/>
     <use x="83.398438" xlink:href="#ArialMT-38"/>
     <use x="139.013672" xlink:href="#ArialMT-39"/>
    </g>
   </g>
   <g id="text_58">
    <!-- -1.05 -->
    <g style="fill:#262626;" transform="translate(263.677344 237.272687)scale(0.1 -0.1)">
     <use xlink:href="#ArialMT-2d"/>
     <use x="33.300781" xlink:href="#ArialMT-31"/>
     <use x="88.916016" xlink:href="#ArialMT-2e"/>
     <use x="116.699219" xlink:href="#ArialMT-30"/>
     <use x="172.314453" xlink:href="#ArialMT-35"/>
    </g>
   </g>
   <g id="text_59">
    <!-- -1.84 -->
    <g style="fill:#262626;" transform="translate(338.077344 237.272687)scale(0.1 -0.1)">
     <use xlink:href="#ArialMT-2d"/>
     <use x="33.300781" xlink:href="#ArialMT-31"/>
     <use x="88.916016" xlink:href="#ArialMT-2e"/>
     <use x="116.699219" xlink:href="#ArialMT-38"/>
     <use x="172.314453" xlink:href="#ArialMT-34"/>
    </g>
   </g>
   <g id="text_60">
    <!-- 2.84 -->
    <g style="fill:#ffffff;" transform="translate(190.942187 259.016687)scale(0.1 -0.1)">
     <use xlink:href="#ArialMT-32"/>
     <use x="55.615234" xlink:href="#ArialMT-2e"/>
     <use x="83.398438" xlink:href="#ArialMT-38"/>
     <use x="139.013672" xlink:href="#ArialMT-34"/>
    </g>
   </g>
   <g id="text_61">
    <!-- -1.03 -->
    <g style="fill:#262626;" transform="translate(263.677344 259.016687)scale(0.1 -0.1)">
     <use xlink:href="#ArialMT-2d"/>
     <use x="33.300781" xlink:href="#ArialMT-31"/>
     <use x="88.916016" xlink:href="#ArialMT-2e"/>
     <use x="116.699219" xlink:href="#ArialMT-30"/>
     <use x="172.314453" xlink:href="#ArialMT-33"/>
    </g>
   </g>
   <g id="text_62">
    <!-- -1.81 -->
    <g style="fill:#262626;" transform="translate(338.077344 259.016687)scale(0.1 -0.1)">
     <use xlink:href="#ArialMT-2d"/>
     <use x="33.300781" xlink:href="#ArialMT-31"/>
     <use x="88.916016" xlink:href="#ArialMT-2e"/>
     <use x="116.699219" xlink:href="#ArialMT-38"/>
     <use x="172.314453" xlink:href="#ArialMT-31"/>
    </g>
   </g>
   <g id="text_63">
    <!-- 2.79 -->
    <g style="fill:#ffffff;" transform="translate(190.942187 280.760687)scale(0.1 -0.1)">
     <use xlink:href="#ArialMT-32"/>
     <use x="55.615234" xlink:href="#ArialMT-2e"/>
     <use x="83.398438" xlink:href="#ArialMT-37"/>
     <use x="139.013672" xlink:href="#ArialMT-39"/>
    </g>
   </g>
   <g id="text_64">
    <!-- -1.54 -->
    <g style="fill:#262626;" transform="translate(263.677344 280.760687)scale(0.1 -0.1)">
     <use xlink:href="#ArialMT-2d"/>
     <use x="33.300781" xlink:href="#ArialMT-31"/>
     <use x="88.916016" xlink:href="#ArialMT-2e"/>
     <use x="116.699219" xlink:href="#ArialMT-35"/>
     <use x="172.314453" xlink:href="#ArialMT-34"/>
    </g>
   </g>
   <g id="text_65">
    <!-- -1.25 -->
    <g style="fill:#262626;" transform="translate(338.077344 280.760687)scale(0.1 -0.1)">
     <use xlink:href="#ArialMT-2d"/>
     <use x="33.300781" xlink:href="#ArialMT-31"/>
     <use x="88.916016" xlink:href="#ArialMT-2e"/>
     <use x="116.699219" xlink:href="#ArialMT-32"/>
     <use x="172.314453" xlink:href="#ArialMT-35"/>
    </g>
   </g>
   <g id="text_66">
    <!-- 2.79 -->
    <g style="fill:#ffffff;" transform="translate(190.942187 302.504687)scale(0.1 -0.1)">
     <use xlink:href="#ArialMT-32"/>
     <use x="55.615234" xlink:href="#ArialMT-2e"/>
     <use x="83.398438" xlink:href="#ArialMT-37"/>
     <use x="139.013672" xlink:href="#ArialMT-39"/>
    </g>
   </g>
   <g id="text_67">
    <!-- -3.06 -->
    <g style="fill:#ffffff;" transform="translate(263.677344 302.504687)scale(0.1 -0.1)">
     <use xlink:href="#ArialMT-2d"/>
     <use x="33.300781" xlink:href="#ArialMT-33"/>
     <use x="88.916016" xlink:href="#ArialMT-2e"/>
     <use x="116.699219" xlink:href="#ArialMT-30"/>
     <use x="172.314453" xlink:href="#ArialMT-36"/>
    </g>
   </g>
   <g id="text_68">
    <!-- 0.27 -->
    <g style="fill:#262626;" transform="translate(339.742188 302.504687)scale(0.1 -0.1)">
     <use xlink:href="#ArialMT-30"/>
     <use x="55.615234" xlink:href="#ArialMT-2e"/>
     <use x="83.398438" xlink:href="#ArialMT-32"/>
     <use x="139.013672" xlink:href="#ArialMT-37"/>
    </g>
   </g>
   <g id="text_69">
    <!-- 2.78 -->
    <g style="fill:#ffffff;" transform="translate(190.942187 324.248687)scale(0.1 -0.1)">
     <use xlink:href="#ArialMT-32"/>
     <use x="55.615234" xlink:href="#ArialMT-2e"/>
     <use x="83.398438" xlink:href="#ArialMT-37"/>
     <use x="139.013672" xlink:href="#ArialMT-38"/>
    </g>
   </g>
   <g id="text_70">
    <!-- -2.71 -->
    <g style="fill:#262626;" transform="translate(263.677344 324.248687)scale(0.1 -0.1)">
     <use xlink:href="#ArialMT-2d"/>
     <use x="33.300781" xlink:href="#ArialMT-32"/>
     <use x="88.916016" xlink:href="#ArialMT-2e"/>
     <use x="116.699219" xlink:href="#ArialMT-37"/>
     <use x="172.314453" xlink:href="#ArialMT-31"/>
    </g>
   </g>
   <g id="text_71">
    <!-- -0.07 -->
    <g style="fill:#262626;" transform="translate(338.077344 324.248687)scale(0.1 -0.1)">
     <use xlink:href="#ArialMT-2d"/>
     <use x="33.300781" xlink:href="#ArialMT-30"/>
     <use x="88.916016" xlink:href="#ArialMT-2e"/>
     <use x="116.699219" xlink:href="#ArialMT-30"/>
     <use x="172.314453" xlink:href="#ArialMT-37"/>
    </g>
   </g>
   <g id="text_72">
    <!-- 2.69 -->
    <g style="fill:#ffffff;" transform="translate(190.942187 345.992687)scale(0.1 -0.1)">
     <use xlink:href="#ArialMT-32"/>
     <use x="55.615234" xlink:href="#ArialMT-2e"/>
     <use x="83.398438" xlink:href="#ArialMT-36"/>
     <use x="139.013672" xlink:href="#ArialMT-39"/>
    </g>
   </g>
   <g id="text_73">
    <!-- -1.29 -->
    <g style="fill:#262626;" transform="translate(263.677344 345.992687)scale(0.1 -0.1)">
     <use xlink:href="#ArialMT-2d"/>
     <use x="33.300781" xlink:href="#ArialMT-31"/>
     <use x="88.916016" xlink:href="#ArialMT-2e"/>
     <use x="116.699219" xlink:href="#ArialMT-32"/>
     <use x="172.314453" xlink:href="#ArialMT-39"/>
    </g>
   </g>
   <g id="text_74">
    <!-- -1.40 -->
    <g style="fill:#262626;" transform="translate(338.077344 345.992687)scale(0.1 -0.1)">
     <use xlink:href="#ArialMT-2d"/>
     <use x="33.300781" xlink:href="#ArialMT-31"/>
     <use x="88.916016" xlink:href="#ArialMT-2e"/>
     <use x="116.699219" xlink:href="#ArialMT-34"/>
     <use x="172.314453" xlink:href="#ArialMT-30"/>
    </g>
   </g>
   <g id="text_75">
    <!-- 2.65 -->
    <g style="fill:#262626;" transform="translate(190.942187 367.736687)scale(0.1 -0.1)">
     <use xlink:href="#ArialMT-32"/>
     <use x="55.615234" xlink:href="#ArialMT-2e"/>
     <use x="83.398438" xlink:href="#ArialMT-36"/>
     <use x="139.013672" xlink:href="#ArialMT-35"/>
    </g>
   </g>
   <g id="text_76">
    <!-- -1.50 -->
    <g style="fill:#262626;" transform="translate(263.677344 367.736687)scale(0.1 -0.1)">
     <use xlink:href="#ArialMT-2d"/>
     <use x="33.300781" xlink:href="#ArialMT-31"/>
     <use x="88.916016" xlink:href="#ArialMT-2e"/>
     <use x="116.699219" xlink:href="#ArialMT-35"/>
     <use x="172.314453" xlink:href="#ArialMT-30"/>
    </g>
   </g>
   <g id="text_77">
    <!-- -1.14 -->
    <g style="fill:#262626;" transform="translate(338.077344 367.736687)scale(0.1 -0.1)">
     <use xlink:href="#ArialMT-2d"/>
     <use x="33.300781" xlink:href="#ArialMT-31"/>
     <use x="88.916016" xlink:href="#ArialMT-2e"/>
     <use x="116.699219" xlink:href="#ArialMT-31"/>
     <use x="172.314453" xlink:href="#ArialMT-34"/>
    </g>
   </g>
   <g id="text_78">
    <!-- 2.51 -->
    <g style="fill:#262626;" transform="translate(190.942187 389.480687)scale(0.1 -0.1)">
     <use xlink:href="#ArialMT-32"/>
     <use x="55.615234" xlink:href="#ArialMT-2e"/>
     <use x="83.398438" xlink:href="#ArialMT-35"/>
     <use x="139.013672" xlink:href="#ArialMT-31"/>
    </g>
   </g>
   <g id="text_79">
    <!-- -2.75 -->
    <g style="fill:#262626;" transform="translate(263.677344 389.480687)scale(0.1 -0.1)">
     <use xlink:href="#ArialMT-2d"/>
     <use x="33.300781" xlink:href="#ArialMT-32"/>
     <use x="88.916016" xlink:href="#ArialMT-2e"/>
     <use x="116.699219" xlink:href="#ArialMT-37"/>
     <use x="172.314453" xlink:href="#ArialMT-35"/>
    </g>
   </g>
   <g id="text_80">
    <!-- 0.25 -->
    <g style="fill:#262626;" transform="translate(339.742188 389.480687)scale(0.1 -0.1)">
     <use xlink:href="#ArialMT-30"/>
     <use x="55.615234" xlink:href="#ArialMT-2e"/>
     <use x="83.398438" xlink:href="#ArialMT-32"/>
     <use x="139.013672" xlink:href="#ArialMT-35"/>
    </g>
   </g>
   <g id="text_81">
    <!-- 2.33 -->
    <g style="fill:#262626;" transform="translate(190.942187 411.224687)scale(0.1 -0.1)">
     <use xlink:href="#ArialMT-32"/>
     <use x="55.615234" xlink:href="#ArialMT-2e"/>
     <use x="83.398438" xlink:href="#ArialMT-33"/>
     <use x="139.013672" xlink:href="#ArialMT-33"/>
    </g>
   </g>
   <g id="text_82">
    <!-- -2.82 -->
    <g style="fill:#262626;" transform="translate(263.677344 411.224687)scale(0.1 -0.1)">
     <use xlink:href="#ArialMT-2d"/>
     <use x="33.300781" xlink:href="#ArialMT-32"/>
     <use x="88.916016" xlink:href="#ArialMT-2e"/>
     <use x="116.699219" xlink:href="#ArialMT-38"/>
     <use x="172.314453" xlink:href="#ArialMT-32"/>
    </g>
   </g>
   <g id="text_83">
    <!-- 0.49 -->
    <g style="fill:#262626;" transform="translate(339.742188 411.224687)scale(0.1 -0.1)">
     <use xlink:href="#ArialMT-30"/>
     <use x="55.615234" xlink:href="#ArialMT-2e"/>
     <use x="83.398438" xlink:href="#ArialMT-34"/>
     <use x="139.013672" xlink:href="#ArialMT-39"/>
    </g>
   </g>
   <g id="text_84">
    <!-- 1.05 -->
    <g style="fill:#262626;" transform="translate(190.942187 432.968687)scale(0.1 -0.1)">
     <use xlink:href="#ArialMT-31"/>
     <use x="55.615234" xlink:href="#ArialMT-2e"/>
     <use x="83.398438" xlink:href="#ArialMT-30"/>
     <use x="139.013672" xlink:href="#ArialMT-35"/>
    </g>
   </g>
   <g id="text_85">
    <!-- -3.06 -->
    <g style="fill:#ffffff;" transform="translate(263.677344 432.968687)scale(0.1 -0.1)">
     <use xlink:href="#ArialMT-2d"/>
     <use x="33.300781" xlink:href="#ArialMT-33"/>
     <use x="88.916016" xlink:href="#ArialMT-2e"/>
     <use x="116.699219" xlink:href="#ArialMT-30"/>
     <use x="172.314453" xlink:href="#ArialMT-36"/>
    </g>
   </g>
   <g id="text_86">
    <!-- 2.00 -->
    <g style="fill:#262626;" transform="translate(339.742188 432.968687)scale(0.1 -0.1)">
     <use xlink:href="#ArialMT-32"/>
     <use x="55.615234" xlink:href="#ArialMT-2e"/>
     <use x="83.398438" xlink:href="#ArialMT-30"/>
     <use x="139.013672" xlink:href="#ArialMT-30"/>
    </g>
   </g>
   <g id="text_87">
    <!-- 0.79 -->
    <g style="fill:#262626;" transform="translate(190.942187 454.712687)scale(0.1 -0.1)">
     <use xlink:href="#ArialMT-30"/>
     <use x="55.615234" xlink:href="#ArialMT-2e"/>
     <use x="83.398438" xlink:href="#ArialMT-37"/>
     <use x="139.013672" xlink:href="#ArialMT-39"/>
    </g>
   </g>
   <g id="text_88">
    <!-- 1.96 -->
    <g style="fill:#262626;" transform="translate(265.342188 454.712687)scale(0.1 -0.1)">
     <use xlink:href="#ArialMT-31"/>
     <use x="55.615234" xlink:href="#ArialMT-2e"/>
     <use x="83.398438" xlink:href="#ArialMT-39"/>
     <use x="139.013672" xlink:href="#ArialMT-36"/>
    </g>
   </g>
   <g id="text_89">
    <!-- -2.75 -->
    <g style="fill:#262626;" transform="translate(338.077344 454.712687)scale(0.1 -0.1)">
     <use xlink:href="#ArialMT-2d"/>
     <use x="33.300781" xlink:href="#ArialMT-32"/>
     <use x="88.916016" xlink:href="#ArialMT-2e"/>
     <use x="116.699219" xlink:href="#ArialMT-37"/>
     <use x="172.314453" xlink:href="#ArialMT-35"/>
    </g>
   </g>
   <g id="text_90">
    <!-- -0.06 -->
    <g style="fill:#262626;" transform="translate(189.277344 476.456687)scale(0.1 -0.1)">
     <use xlink:href="#ArialMT-2d"/>
     <use x="33.300781" xlink:href="#ArialMT-30"/>
     <use x="88.916016" xlink:href="#ArialMT-2e"/>
     <use x="116.699219" xlink:href="#ArialMT-30"/>
     <use x="172.314453" xlink:href="#ArialMT-36"/>
    </g>
   </g>
   <g id="text_91">
    <!-- -3.59 -->
    <g style="fill:#ffffff;" transform="translate(263.677344 476.456687)scale(0.1 -0.1)">
     <use xlink:href="#ArialMT-2d"/>
     <use x="33.300781" xlink:href="#ArialMT-33"/>
     <use x="88.916016" xlink:href="#ArialMT-2e"/>
     <use x="116.699219" xlink:href="#ArialMT-35"/>
     <use x="172.314453" xlink:href="#ArialMT-39"/>
    </g>
   </g>
   <g id="text_92">
    <!-- 3.65 -->
    <g style="fill:#ffffff;" transform="translate(339.742188 476.456687)scale(0.1 -0.1)">
     <use xlink:href="#ArialMT-33"/>
     <use x="55.615234" xlink:href="#ArialMT-2e"/>
     <use x="83.398438" xlink:href="#ArialMT-36"/>
     <use x="139.013672" xlink:href="#ArialMT-35"/>
    </g>
   </g>
   <g id="text_93">
    <!-- -1.36 -->
    <g style="fill:#262626;" transform="translate(189.277344 498.200687)scale(0.1 -0.1)">
     <use xlink:href="#ArialMT-2d"/>
     <use x="33.300781" xlink:href="#ArialMT-31"/>
     <use x="88.916016" xlink:href="#ArialMT-2e"/>
     <use x="116.699219" xlink:href="#ArialMT-33"/>
     <use x="172.314453" xlink:href="#ArialMT-36"/>
    </g>
   </g>
   <g id="text_94">
    <!-- -2.16 -->
    <g style="fill:#262626;" transform="translate(263.677344 498.200687)scale(0.1 -0.1)">
     <use xlink:href="#ArialMT-2d"/>
     <use x="33.300781" xlink:href="#ArialMT-32"/>
     <use x="88.916016" xlink:href="#ArialMT-2e"/>
     <use x="116.699219" xlink:href="#ArialMT-31"/>
     <use x="172.314453" xlink:href="#ArialMT-36"/>
    </g>
   </g>
   <g id="text_95">
    <!-- 3.52 -->
    <g style="fill:#ffffff;" transform="translate(339.742188 498.200687)scale(0.1 -0.1)">
     <use xlink:href="#ArialMT-33"/>
     <use x="55.615234" xlink:href="#ArialMT-2e"/>
     <use x="83.398438" xlink:href="#ArialMT-35"/>
     <use x="139.013672" xlink:href="#ArialMT-32"/>
    </g>
   </g>
   <g id="text_96">
    <!-- -1.56 -->
    <g style="fill:#262626;" transform="translate(189.277344 519.944687)scale(0.1 -0.1)">
     <use xlink:href="#ArialMT-2d"/>
     <use x="33.300781" xlink:href="#ArialMT-31"/>
     <use x="88.916016" xlink:href="#ArialMT-2e"/>
     <use x="116.699219" xlink:href="#ArialMT-35"/>
     <use x="172.314453" xlink:href="#ArialMT-36"/>
    </g>
   </g>
   <g id="text_97">
    <!-- -3.25 -->
    <g style="fill:#ffffff;" transform="translate(263.677344 519.944687)scale(0.1 -0.1)">
     <use xlink:href="#ArialMT-2d"/>
     <use x="33.300781" xlink:href="#ArialMT-33"/>
     <use x="88.916016" xlink:href="#ArialMT-2e"/>
     <use x="116.699219" xlink:href="#ArialMT-32"/>
     <use x="172.314453" xlink:href="#ArialMT-35"/>
    </g>
   </g>
   <g id="text_98">
    <!-- 4.81 -->
    <g style="fill:#ffffff;" transform="translate(339.742188 519.944687)scale(0.1 -0.1)">
     <use xlink:href="#ArialMT-34"/>
     <use x="55.615234" xlink:href="#ArialMT-2e"/>
     <use x="83.398438" xlink:href="#ArialMT-38"/>
     <use x="139.013672" xlink:href="#ArialMT-31"/>
    </g>
   </g>
   <g id="text_99">
    <!-- -2.19 -->
    <g style="fill:#262626;" transform="translate(189.277344 541.688687)scale(0.1 -0.1)">
     <use xlink:href="#ArialMT-2d"/>
     <use x="33.300781" xlink:href="#ArialMT-32"/>
     <use x="88.916016" xlink:href="#ArialMT-2e"/>
     <use x="116.699219" xlink:href="#ArialMT-31"/>
     <use x="172.314453" xlink:href="#ArialMT-39"/>
    </g>
   </g>
   <g id="text_100">
    <!-- 3.37 -->
    <g style="fill:#ffffff;" transform="translate(265.342188 541.688687)scale(0.1 -0.1)">
     <use xlink:href="#ArialMT-33"/>
     <use x="55.615234" xlink:href="#ArialMT-2e"/>
     <use x="83.398438" xlink:href="#ArialMT-33"/>
     <use x="139.013672" xlink:href="#ArialMT-37"/>
    </g>
   </g>
   <g id="text_101">
    <!-- -1.18 -->
    <g style="fill:#262626;" transform="translate(338.077344 541.688687)scale(0.1 -0.1)">
     <use xlink:href="#ArialMT-2d"/>
     <use x="33.300781" xlink:href="#ArialMT-31"/>
     <use x="88.916016" xlink:href="#ArialMT-2e"/>
     <use x="116.699219" xlink:href="#ArialMT-31"/>
     <use x="172.314453" xlink:href="#ArialMT-38"/>
    </g>
   </g>
   <g id="text_102">
    <!-- -2.24 -->
    <g style="fill:#262626;" transform="translate(189.277344 563.432687)scale(0.1 -0.1)">
     <use xlink:href="#ArialMT-2d"/>
     <use x="33.300781" xlink:href="#ArialMT-32"/>
     <use x="88.916016" xlink:href="#ArialMT-2e"/>
     <use x="116.699219" xlink:href="#ArialMT-32"/>
     <use x="172.314453" xlink:href="#ArialMT-34"/>
    </g>
   </g>
   <g id="text_103">
    <!-- 2.65 -->
    <g style="fill:#262626;" transform="translate(265.342188 563.432687)scale(0.1 -0.1)">
     <use xlink:href="#ArialMT-32"/>
     <use x="55.615234" xlink:href="#ArialMT-2e"/>
     <use x="83.398438" xlink:href="#ArialMT-36"/>
     <use x="139.013672" xlink:href="#ArialMT-35"/>
    </g>
   </g>
   <g id="text_104">
    <!-- -0.42 -->
    <g style="fill:#262626;" transform="translate(338.077344 563.432687)scale(0.1 -0.1)">
     <use xlink:href="#ArialMT-2d"/>
     <use x="33.300781" xlink:href="#ArialMT-30"/>
     <use x="88.916016" xlink:href="#ArialMT-2e"/>
     <use x="116.699219" xlink:href="#ArialMT-34"/>
     <use x="172.314453" xlink:href="#ArialMT-32"/>
    </g>
   </g>
   <g id="text_105">
    <!-- Largest Coefficients (Max-AV) -->
    <g style="fill:#262626;" transform="translate(175.728125 18.119531)scale(0.15 -0.15)">
     <defs>
      <path d="M 469 0 
L 469 4581 
L 1075 4581 
L 1075 541 
L 3331 541 
L 3331 0 
L 469 0 
z
" id="ArialMT-4c" transform="scale(0.015625)"/>
      <path id="ArialMT-20" transform="scale(0.015625)"/>
      <path d="M 3763 1606 
L 4369 1453 
Q 4178 706 3683 314 
Q 3188 -78 2472 -78 
Q 1731 -78 1267 223 
Q 803 525 561 1097 
Q 319 1669 319 2325 
Q 319 3041 592 3573 
Q 866 4106 1370 4382 
Q 1875 4659 2481 4659 
Q 3169 4659 3637 4309 
Q 4106 3959 4291 3325 
L 3694 3184 
Q 3534 3684 3231 3912 
Q 2928 4141 2469 4141 
Q 1941 4141 1586 3887 
Q 1231 3634 1087 3207 
Q 944 2781 944 2328 
Q 944 1744 1114 1308 
Q 1284 872 1643 656 
Q 2003 441 2422 441 
Q 2931 441 3284 734 
Q 3638 1028 3763 1606 
z
" id="ArialMT-43" transform="scale(0.015625)"/>
      <path d="M 1497 -1347 
Q 1031 -759 709 28 
Q 388 816 388 1659 
Q 388 2403 628 3084 
Q 909 3875 1497 4659 
L 1900 4659 
Q 1522 4009 1400 3731 
Q 1209 3300 1100 2831 
Q 966 2247 966 1656 
Q 966 153 1900 -1347 
L 1497 -1347 
z
" id="ArialMT-28" transform="scale(0.015625)"/>
      <path d="M 475 0 
L 475 4581 
L 1388 4581 
L 2472 1338 
Q 2622 884 2691 659 
Q 2769 909 2934 1394 
L 4031 4581 
L 4847 4581 
L 4847 0 
L 4263 0 
L 4263 3834 
L 2931 0 
L 2384 0 
L 1059 3900 
L 1059 0 
L 475 0 
z
" id="ArialMT-4d" transform="scale(0.015625)"/>
      <path d="M 47 0 
L 1259 1725 
L 138 3319 
L 841 3319 
L 1350 2541 
Q 1494 2319 1581 2169 
Q 1719 2375 1834 2534 
L 2394 3319 
L 3066 3319 
L 1919 1756 
L 3153 0 
L 2463 0 
L 1781 1031 
L 1600 1309 
L 728 0 
L 47 0 
z
" id="ArialMT-78" transform="scale(0.015625)"/>
      <path d="M -9 0 
L 1750 4581 
L 2403 4581 
L 4278 0 
L 3588 0 
L 3053 1388 
L 1138 1388 
L 634 0 
L -9 0 
z
M 1313 1881 
L 2866 1881 
L 2388 3150 
Q 2169 3728 2063 4100 
Q 1975 3659 1816 3225 
L 1313 1881 
z
" id="ArialMT-41" transform="scale(0.015625)"/>
      <path d="M 1803 0 
L 28 4581 
L 684 4581 
L 1875 1253 
Q 2019 853 2116 503 
Q 2222 878 2363 1253 
L 3600 4581 
L 4219 4581 
L 2425 0 
L 1803 0 
z
" id="ArialMT-56" transform="scale(0.015625)"/>
      <path d="M 791 -1347 
L 388 -1347 
Q 1322 153 1322 1656 
Q 1322 2244 1188 2822 
Q 1081 3291 891 3722 
Q 769 4003 388 4659 
L 791 4659 
Q 1378 3875 1659 3084 
Q 1900 2403 1900 1659 
Q 1900 816 1576 28 
Q 1253 -759 791 -1347 
z
" id="ArialMT-29" transform="scale(0.015625)"/>
     </defs>
     <use xlink:href="#ArialMT-4c"/>
     <use x="55.615234" xlink:href="#ArialMT-61"/>
     <use x="111.230469" xlink:href="#ArialMT-72"/>
     <use x="144.53125" xlink:href="#ArialMT-67"/>
     <use x="200.146484" xlink:href="#ArialMT-65"/>
     <use x="255.761719" xlink:href="#ArialMT-73"/>
     <use x="305.761719" xlink:href="#ArialMT-74"/>
     <use x="333.544922" xlink:href="#ArialMT-20"/>
     <use x="361.328125" xlink:href="#ArialMT-43"/>
     <use x="433.544922" xlink:href="#ArialMT-6f"/>
     <use x="489.160156" xlink:href="#ArialMT-65"/>
     <use x="544.775391" xlink:href="#ArialMT-66"/>
     <use x="570.808594" xlink:href="#ArialMT-66"/>
     <use x="598.591797" xlink:href="#ArialMT-69"/>
     <use x="620.808594" xlink:href="#ArialMT-63"/>
     <use x="670.808594" xlink:href="#ArialMT-69"/>
     <use x="693.025391" xlink:href="#ArialMT-65"/>
     <use x="748.640625" xlink:href="#ArialMT-6e"/>
     <use x="804.255859" xlink:href="#ArialMT-74"/>
     <use x="832.039062" xlink:href="#ArialMT-73"/>
     <use x="882.039062" xlink:href="#ArialMT-20"/>
     <use x="909.822266" xlink:href="#ArialMT-28"/>
     <use x="943.123047" xlink:href="#ArialMT-4d"/>
     <use x="1026.423828" xlink:href="#ArialMT-61"/>
     <use x="1082.039062" xlink:href="#ArialMT-78"/>
     <use x="1132.039062" xlink:href="#ArialMT-2d"/>
     <use x="1165.339844" xlink:href="#ArialMT-41"/>
     <use x="1224.664062" xlink:href="#ArialMT-56"/>
     <use x="1291.363281" xlink:href="#ArialMT-29"/>
    </g>
   </g>
  </g>
 </g>
 <defs>
  <clipPath id="peb738669e0">
   <rect height="543.6" width="223.2" x="163.472656" y="28.119531"/>
  </clipPath>
 </defs>
</svg>
